<svg width="24" height="24" viewBox="0 0 24 24" fill="none" xmlns="http://www.w3.org/2000/svg">
<path fill-rule="evenodd" clip-rule="evenodd" d="M11.2929 4.29631C11.6834 3.90579 12.3166 3.90579 12.7071 4.29631L16.5303 8.11954C16.8232 8.41243 16.8232 8.8873 16.5303 9.1802C16.2374 9.47309 15.7626 9.47309 15.4697 9.1802L12 5.71053L8.53033 9.1802C8.23744 9.47309 7.76256 9.47309 7.46967 9.1802C7.17678 8.8873 7.17678 8.41243 7.46967 8.11953L11.2929 4.29631Z" fill="white"/>
<path fill-rule="evenodd" clip-rule="evenodd" d="M12.7071 19.7095C12.3166 20.1 11.6834 20.1 11.2929 19.7095L7.46967 15.8862C7.17678 15.5933 7.17678 15.1185 7.46967 14.8256C7.76256 14.5327 8.23744 14.5327 8.53033 14.8256L12 18.2952L15.4697 14.8256C15.7626 14.5327 16.2374 14.5327 16.5303 14.8256C16.8232 15.1185 16.8232 15.5933 16.5303 15.8862L12.7071 19.7095Z" fill="white"/>
</svg>
