<svg width="24" height="24" viewBox="0 0 24 24" fill="none" xmlns="http://www.w3.org/2000/svg">
<path d="M12.0238 15.124C11.4906 15.124 11.0462 15.5615 11.0531 16.0947C11.0462 16.6279 11.4906 17.0586 12.0238 17.0654C12.5502 17.0586 12.9877 16.6279 12.9945 16.0947C12.9877 15.5615 12.5502 15.124 12.0238 15.124Z" fill="white"/>
<path d="M12.7425 7.83203C12.7425 7.41782 12.4067 7.08203 11.9925 7.08203C11.5783 7.08203 11.2425 7.41782 11.2425 7.83203V13.332C11.2425 13.7462 11.5783 14.082 11.9925 14.082C12.4067 14.082 12.7425 13.7462 12.7425 13.332V7.83203Z" fill="white"/>
<path fill-rule="evenodd" clip-rule="evenodd" d="M12 3.25C7.16732 3.25 3.25 7.16732 3.25 12C3.25 16.8327 7.16732 20.75 12 20.75C16.8327 20.75 20.75 16.8327 20.75 12C20.75 7.16732 16.8327 3.25 12 3.25ZM4.75 12C4.75 7.99575 7.99575 4.75 12 4.75C16.0042 4.75 19.25 7.99575 19.25 12C19.25 16.0042 16.0042 19.25 12 19.25C7.99575 19.25 4.75 16.0042 4.75 12Z" fill="white"/>
</svg>
