<svg width="24" height="24" viewBox="0 0 24 24" fill="none" xmlns="http://www.w3.org/2000/svg">
<path fill-rule="evenodd" clip-rule="evenodd" d="M19.5 18.332V7.5H11.0828C10.632 7.5 10.1996 7.32089 9.88076 7.00208L8.37868 5.5H4.5V18.332H19.5ZM4 4C3.44772 4 3 4.44772 3 5V18.832C3 19.3843 3.44772 19.832 4 19.832H20C20.5523 19.832 21 19.3843 21 18.832V7C21 6.44772 20.5523 6 20 6H11.0828C11.0298 6 10.9789 5.97893 10.9414 5.94142L9.29289 4.29289C9.10536 4.10536 8.851 4 8.58579 4H4Z" fill="white"/>
</svg>
