<svg width="24" height="24" viewBox="0 0 24 24" fill="none" xmlns="http://www.w3.org/2000/svg">
<path d="M6.9269 18.1269C6.63589 18.4179 6.16408 18.4179 5.87307 18.1269C5.58207 17.8359 5.58207 17.3641 5.87307 17.0731L10.9462 12L5.87307 6.92693C5.58207 6.63592 5.58207 6.16411 5.87307 5.8731C6.16408 5.5821 6.63589 5.5821 6.9269 5.8731L12 10.9462L17.0731 5.8731C17.3641 5.5821 17.8359 5.5821 18.1269 5.8731C18.4179 6.16411 18.4179 6.63592 18.1269 6.92693L13.0538 12L18.1269 17.0731C18.4179 17.3641 18.4179 17.8359 18.1269 18.1269C17.8359 18.4179 17.3641 18.4179 17.0731 18.1269L12 13.0538L6.9269 18.1269Z" fill="white"/>
</svg>
