<svg width="24" height="24" viewBox="0 0 24 24" fill="none" xmlns="http://www.w3.org/2000/svg">
<path fill-rule="evenodd" clip-rule="evenodd" d="M3.77111 5.33875C4.01497 5.20823 4.31088 5.22254 4.54103 5.37596L11.291 9.87596C11.4997 10.0151 11.625 10.2492 11.625 10.5V13.5C11.625 13.7508 11.4997 13.9849 11.291 14.124L4.54103 18.624C4.31088 18.7775 4.01497 18.7918 3.77111 18.6613C3.52724 18.5307 3.375 18.2766 3.375 18V6C3.375 5.7234 3.52724 5.46926 3.77111 5.33875ZM4.875 7.40139V16.5986L10.125 13.0986V10.9014L4.875 7.40139Z" fill="white"/>
<path fill-rule="evenodd" clip-rule="evenodd" d="M10.5211 5.33875C10.765 5.20823 11.0609 5.22254 11.291 5.37596L20.291 11.376C20.4997 11.5151 20.625 11.7492 20.625 12C20.625 12.2508 20.4997 12.4849 20.291 12.624L11.291 18.624C11.0609 18.7775 10.765 18.7918 10.5211 18.6613C10.2772 18.5307 10.125 18.2766 10.125 18V6C10.125 5.7234 10.2772 5.46926 10.5211 5.33875ZM11.625 7.40139V16.5986L18.5229 12L11.625 7.40139Z" fill="white"/>
</svg>
