<svg width="24" height="24" viewBox="0 0 24 24" fill="none" xmlns="http://www.w3.org/2000/svg">
<path fill-rule="evenodd" clip-rule="evenodd" d="M16.25 3.25C16.6642 3.25 17 3.58579 17 4V6H20C20.5523 6 21 6.44772 21 7V9.74831L21 9.75L21 9.75169V19C21 19.5523 20.5523 20 20 20H4C3.44772 20 3 19.5523 3 19V9.75V7C3 6.44772 3.44772 6 4 6H7V4C7 3.58579 7.33579 3.25 7.75 3.25C8.16421 3.25 8.5 3.58579 8.5 4V6H15.5V4C15.5 3.58579 15.8358 3.25 16.25 3.25ZM4.5 7.5V9H19.5V7.5H4.5ZM19.5 18.5V10.5H4.5V18.5H19.5ZM7.00003 12C6.44774 12 6.00001 12.4477 6.00002 13L6.00004 14C6.00005 14.5523 6.44776 15 7.00004 15H8C8.55228 15 9 14.5523 9 14V13C9 12.4477 8.55229 12 8.00001 12L7.00003 12Z" fill="white"/>
</svg>
