<svg width="24" height="24" viewBox="0 0 24 24" fill="none" xmlns="http://www.w3.org/2000/svg">
<path fill-rule="evenodd" clip-rule="evenodd" d="M16.4358 6.23819C15.4342 5.23759 13.8104 5.23759 12.8088 6.2382L6.72493 12.3164C5.07721 13.9625 5.07721 16.6315 6.72493 18.2776C8.37264 19.9238 11.0441 19.9238 12.6918 18.2776L18.7289 12.2462C19.0197 11.9557 19.4911 11.9557 19.7819 12.2462C20.0727 12.5367 20.0727 13.0077 19.7819 13.2982L13.7448 19.3296C11.5156 21.5568 7.90121 21.5568 5.67195 19.3296C3.44268 17.1025 3.44268 13.4915 5.67195 11.2644L11.7558 5.18621C13.3389 3.6046 15.9057 3.6046 17.4888 5.1862C19.0719 6.76781 19.0719 9.3321 17.4888 10.9137L11.4517 16.9451C10.5147 17.8812 8.99564 17.8812 8.05871 16.9451C7.12177 16.0091 7.12177 14.4914 8.05871 13.5554L13.7507 7.86878C14.0414 7.57828 14.5129 7.57828 14.8036 7.86878C15.0944 8.15928 15.0944 8.63027 14.8036 8.92077L9.11169 14.6074C8.7563 14.9624 8.7563 15.5381 9.11169 15.8931C9.46708 16.2482 10.0433 16.2482 10.3987 15.8931L16.4358 9.86172C17.4373 8.86111 17.4373 7.2388 16.4358 6.23819Z" fill="white"/>
</svg>
