<svg width="24" height="24" viewBox="0 0 24 24" fill="none" xmlns="http://www.w3.org/2000/svg">
<path fill-rule="evenodd" clip-rule="evenodd" d="M3.75 3C3.19772 3 2.75 3.44772 2.75 4V20C2.75 20.5523 3.19772 21 3.75 21H8.75C8.88701 21 9.01758 20.9724 9.13648 20.9226C9.25538 20.9724 9.38594 21 9.52295 21H14.5229C14.6516 21 14.7745 20.9757 14.8875 20.9315C15.0004 20.9757 15.1233 21 15.252 21H20.252C20.8042 21 21.252 20.5523 21.252 20V12.002C21.252 11.4497 20.8042 11.002 20.252 11.002H15.5229V8.00293C15.5229 7.45064 15.0752 7.00293 14.5229 7.00293H9.75V4C9.75 3.44772 9.30228 3 8.75 3H3.75ZM8.45 19.7V4.3H4.05V19.7H8.45ZM14.2229 19.7V8.30293H9.82295V19.7H14.2229ZM19.952 12.302V19.7H15.552V12.302H19.952Z" fill="white"/>
</svg>
