<svg width="24" height="24" viewBox="0 0 24 24" fill="none" xmlns="http://www.w3.org/2000/svg">
<path fill-rule="evenodd" clip-rule="evenodd" d="M14.401 13.3498C10.5198 13.9528 9.5001 17.1211 9.5001 18.2501C9.5001 19.5001 10.7501 19.5001 10.7501 19.5001H20.7502C20.7502 19.5001 22.0002 19.5001 22.0002 18.2501C22.0002 17.1211 20.9805 13.9528 17.0993 13.3498C16.6832 13.2852 16.2342 13.2501 15.7501 13.2501C15.266 13.2501 14.8171 13.2852 14.401 13.3498ZM14.5248 11.7942C14.9153 11.9292 15.3291 12 15.7501 12C16.1712 12 16.585 11.9292 16.9755 11.7942C17.5074 11.6103 17.9963 11.3072 18.4018 10.9017C19.1051 10.1984 19.5002 9.24459 19.5002 8.25002C19.5002 7.25546 19.1051 6.30162 18.4018 5.59836C17.6985 4.89509 16.7447 4.5 15.7501 4.5C14.7556 4.5 13.8017 4.89509 13.0985 5.59836C12.3952 6.30162 12.0001 7.25546 12.0001 8.25002C12.0001 9.24459 12.3952 10.1984 13.0985 10.9017C13.504 11.3072 13.9928 11.6103 14.5248 11.7942ZM20.4414 17.9749C20.3626 17.5774 20.1305 16.902 19.5921 16.2739C18.9535 15.5288 17.819 14.7753 15.7501 14.7753C13.6813 14.7753 12.5468 15.5288 11.9081 16.2739C11.3697 16.902 11.1376 17.5774 11.0589 17.9749H20.4414ZM15.7501 10.4748C16.3402 10.4748 16.9061 10.2404 17.3233 9.8232C17.7406 9.40597 17.975 8.84008 17.975 8.25002C17.975 7.65997 17.7406 7.09408 17.3233 6.67684C16.9061 6.25961 16.3402 6.02521 15.7501 6.02521C15.1601 6.02521 14.5942 6.25961 14.177 6.67684C13.7597 7.09408 13.5253 7.65997 13.5253 8.25002C13.5253 8.84008 13.7597 9.40597 14.177 9.8232C14.5942 10.2404 15.1601 10.4748 15.7501 10.4748Z" fill="white"/>
<path fill-rule="evenodd" clip-rule="evenodd" d="M3.25019 19.5004H8.52023C8.33492 19.1102 8.2425 18.6823 8.25022 18.2504C8.25022 18.1588 8.25271 18.067 8.25766 17.9752C8.31584 16.8969 8.71423 15.811 9.41949 14.8667C9.76433 14.4049 10.1825 13.977 10.6702 13.6004C10.1576 13.4424 9.63087 13.3373 9.09833 13.2861C8.99214 13.2759 8.88572 13.2678 8.77913 13.2619C8.60318 13.2522 8.42679 13.2483 8.25022 13.2504C8.03501 13.2504 7.82674 13.2573 7.62522 13.2707C7.2548 13.2954 6.90719 13.3418 6.58113 13.4069C2.96344 14.1293 2.00018 17.1531 2.00018 18.2504C2.00018 19.5004 3.25019 19.5004 3.25019 19.5004ZM8.87476 11.7397C9.22957 11.5849 9.55592 11.3641 9.83494 11.0851C10.421 10.499 10.7502 9.70417 10.7502 8.87536C10.7502 8.04655 10.421 7.25169 9.83494 6.66564C9.24889 6.07958 8.45403 5.75034 7.62522 5.75034C6.79641 5.75034 6.00155 6.07958 5.4155 6.66564C4.82944 7.25169 4.5002 8.04655 4.5002 8.87536C4.5002 9.70417 4.82944 10.499 5.4155 11.0851C5.76586 11.4354 6.19084 11.694 6.6531 11.8453C6.96406 11.9471 7.2919 12.0004 7.62522 12.0004C7.83148 12.0004 8.03563 11.98 8.23499 11.9403C8.24007 11.9393 8.24515 11.9383 8.25022 11.9373C8.4652 11.8934 8.67451 11.827 8.87476 11.7397ZM7.64882 14.7981C5.95623 14.9284 4.9821 15.6047 4.40822 16.2742C3.86982 16.9024 3.63772 17.5778 3.55898 17.9752H6.73072C6.77631 16.8746 7.09415 15.7874 7.64882 14.7981ZM7.62522 10.4752C8.04952 10.4752 8.45643 10.3066 8.75646 10.0066C9.05648 9.70657 9.22503 9.29966 9.22503 8.87536C9.22503 8.45106 9.05648 8.04415 8.75646 7.74412C8.45643 7.4441 8.04952 7.27555 7.62522 7.27555C7.20092 7.27555 6.79401 7.4441 6.49398 7.74412C6.19396 8.04415 6.02541 8.45106 6.02541 8.87536C6.02541 9.29966 6.19396 9.70657 6.49398 10.0066C6.79401 10.3066 7.20092 10.4752 7.62522 10.4752Z" fill="white"/>
</svg>
