<svg width="24" height="24" viewBox="0 0 24 24" fill="none" xmlns="http://www.w3.org/2000/svg">
<path fill-rule="evenodd" clip-rule="evenodd" d="M3 4C3 3.44772 3.44772 3 4 3H20C20.5523 3 21 3.44772 21 4V20C21 20.5523 20.5523 21 20 21H4C3.44772 21 3 20.5523 3 20V4ZM19.5 4.5V19.5H4.5V4.5H19.5Z" fill="white"/>
<path fill-rule="evenodd" clip-rule="evenodd" d="M14.3685 6.8501C14.1891 6.8501 14.0171 6.92132 13.8903 7.04812L7.04814 13.8903C6.92129 14.0171 6.85001 14.1891 6.84998 14.3685V16.4738C6.84998 16.6531 6.92123 16.8252 7.04807 16.952C7.1749 17.0788 7.34693 17.1501 7.5263 17.1501H9.63162C9.81097 17.1501 9.98297 17.0788 10.1098 16.9519L16.952 10.1098C17.0787 9.98292 17.15 9.81093 17.15 9.63159C17.15 9.45226 17.0787 9.28025 16.9519 9.15342L14.8466 7.04812C14.7198 6.92132 14.5478 6.8501 14.3685 6.8501ZM14.8948 10.2542L13.7459 9.10527L14.3685 8.48266L15.5174 9.63159L14.8948 10.2542ZM8.20262 15.7975V14.6485L12.7895 10.0616L13.9384 11.2106L9.35155 15.7975H8.20262Z" fill="white"/>
</svg>
