<svg width="24" height="24" viewBox="0 0 24 24" fill="none" xmlns="http://www.w3.org/2000/svg">
<path fill-rule="evenodd" clip-rule="evenodd" d="M5.75 4.25V19.75H10.4C10.8142 19.75 11.15 20.0858 11.15 20.5C11.15 20.9142 10.8142 21.25 10.4 21.25H5.6C5.42272 21.25 5.24717 21.2151 5.08338 21.1472C4.91959 21.0794 4.77076 20.98 4.64541 20.8546C4.52005 20.7292 4.42061 20.5804 4.35276 20.4166C4.28492 20.2528 4.25 20.0773 4.25 19.9V4.1C4.25 3.74196 4.39223 3.39858 4.64541 3.14541C4.89858 2.89223 5.24196 2.75 5.6 2.75H15.252C15.6099 2.75032 15.9537 2.89275 16.2067 3.146L19.354 6.29334C19.4799 6.41911 19.5797 6.56855 19.6477 6.73304C19.7156 6.89726 19.7503 7.07326 19.75 7.25094V11.9937C19.75 12.408 19.4142 12.7437 19 12.7437C18.5858 12.7437 18.25 12.408 18.25 11.9937V8.25H15.6C15.242 8.25 14.8986 8.10777 14.6454 7.85459C14.3922 7.60142 14.25 7.25804 14.25 6.9V4.25H5.75ZM17.6893 6.75L15.75 4.81066V6.75H17.6893ZM9.99351 15.9272C8.72431 14.658 8.72431 12.6003 9.99351 11.3311C11.2627 10.0618 13.3205 10.0618 14.5897 11.3311C15.8589 12.6003 15.8589 14.658 14.5897 15.9272C13.3205 17.1965 11.2627 17.1965 9.99351 15.9272ZM8.93285 10.2704C7.07786 12.1254 7.07786 15.1329 8.93285 16.9879C10.6074 18.6624 13.2211 18.8253 15.0784 17.4766L17.4181 19.8163C17.711 20.1092 18.1859 20.1092 18.4788 19.8163C18.7717 19.5234 18.7717 19.0486 18.4788 18.7557L16.1391 16.4159C17.4878 14.5587 17.3249 11.9449 15.6504 10.2704C13.7954 8.4154 10.7878 8.4154 8.93285 10.2704Z" fill="white"/>
</svg>
