<svg width="24" height="24" viewBox="0 0 24 24" fill="none" xmlns="http://www.w3.org/2000/svg">
<path d="M5.24999 20C4.83578 20 4.5 19.6642 4.5 19.25C4.5 18.8358 4.83578 18.5 5.24999 18.5H18.75C19.1642 18.5 19.5 18.8358 19.5 19.25C19.5 19.6642 19.1642 20 18.75 20H5.24999Z" fill="white"/>
<path fill-rule="evenodd" clip-rule="evenodd" d="M11.25 14.1293V4.75C11.25 4.33579 11.5858 4 12 4C12.4142 4 12.75 4.33579 12.75 4.75V14.1293L15.9393 10.94C16.2322 10.6471 16.7071 10.6471 17 10.94C17.2929 11.2329 17.2929 11.7078 17 12.0007L12.7071 16.2936C12.3166 16.6841 11.6834 16.6841 11.2929 16.2936L7 12.0007C6.7071 11.7078 6.7071 11.2329 7 10.94C7.29289 10.6471 7.76776 10.6471 8.06066 10.94L11.25 14.1293Z" fill="white"/>
</svg>
