<svg width="24" height="24" viewBox="0 0 24 24" fill="none" xmlns="http://www.w3.org/2000/svg">
<path fill-rule="evenodd" clip-rule="evenodd" d="M4.20038 17.3807C4.1594 18.6287 4.24611 19.1405 4.55042 19.4448C4.85472 19.7491 5.37905 19.8233 6.61459 19.7949L8.58516 19.7949C8.85025 19.7949 9.1045 19.6896 9.29201 19.5022L20.7695 8.03409C20.9194 7.88288 21.0286 7.7159 21.0973 7.53317C21.166 7.35045 21.2003 7.15855 21.2003 6.95747C21.2003 6.76895 21.1673 6.58044 21.1013 6.39192C21.0353 6.20339 20.9247 6.03669 20.7695 5.89182L18.1342 3.24108C17.9893 3.08596 17.8229 2.97283 17.635 2.90168C17.447 2.83051 17.2528 2.79493 17.0523 2.79493C16.8518 2.79493 16.6602 2.83239 16.4775 2.9073C16.2947 2.98222 16.1278 3.08836 15.9766 3.22571L4.49342 14.7032C4.30579 14.8907 4.20037 15.1451 4.20038 15.4104L4.20038 17.3807ZM8.37609 18.2949L5.70035 18.2949L5.70035 15.6192L14.5227 6.79681L15.8495 8.14574L17.1984 9.47254L8.37609 18.2949ZM19.6924 6.97667L17.0186 4.30293L15.6044 5.71714L18.2782 8.39089L19.6924 6.97667Z" fill="white"/>
</svg>
