<svg width="24" height="24" viewBox="0 0 24 24" fill="none" xmlns="http://www.w3.org/2000/svg">
<path d="M12 3.75C7.44365 3.75 3.75 7.44365 3.75 12C3.75 16.5563 7.44365 20.25 12 20.25C16.5563 20.25 20.25 16.5563 20.25 12C20.25 11.5858 20.5858 11.25 21 11.25C21.4142 11.25 21.75 11.5858 21.75 12C21.75 17.3848 17.3848 21.75 12 21.75C6.61522 21.75 2.25 17.3848 2.25 12C2.25 6.61522 6.61522 2.25 12 2.25C13.9924 2.25 15.8473 2.84841 17.3919 3.87545C17.7369 4.10479 17.8306 4.57033 17.6012 4.91526C17.3719 5.26019 16.9064 5.35389 16.5614 5.12455C15.2552 4.25605 13.6878 3.75 12 3.75Z" fill="white"/>
<path d="M12.0417 16.5967C11.6512 16.9872 11.018 16.9872 10.6275 16.5967L6.53461 12.5038C6.23936 12.2086 6.23936 11.7298 6.53462 11.4346C6.82987 11.1393 7.30857 11.1393 7.60383 11.4346L11.3346 15.1654L21.0707 5.07067C21.3659 4.77542 21.8446 4.77541 22.1399 5.07066C22.4352 5.36592 22.4352 5.84462 22.1399 6.13988L12.0417 16.5967Z" fill="white"/>
<path fill-rule="evenodd" clip-rule="evenodd" d="M10.5568 16.6674L6.4639 12.5745C6.12959 12.2402 6.12959 11.6982 6.46391 11.3639C6.79822 11.0296 7.34023 11.0296 7.67454 11.3639L11.3346 15.024L21 4.99996C21.3343 4.66565 21.8763 4.66565 22.2106 4.99995C22.5449 5.33426 22.5449 5.87628 22.2106 6.21059L12.1124 16.6674C11.6828 17.097 10.9864 17.097 10.5568 16.6674ZM11.3346 15.1654L7.60383 11.4346C7.30857 11.1393 6.82987 11.1393 6.53462 11.4346C6.23936 11.7298 -nan -nan -nan -nanL10.6275 16.5967C11.018 16.9872 11.6512 16.9872 12.0417 16.5967L22.1399 6.13988C22.4352 5.84462 22.4352 5.36592 22.1399 5.07066C21.8446 4.77541 21.3659 4.77542 21.0707 5.07067L11.3346 15.1654Z" fill="white"/>
</svg>
