<svg width="24" height="24" viewBox="0 0 24 24" fill="none" xmlns="http://www.w3.org/2000/svg">
<path fill-rule="evenodd" clip-rule="evenodd" d="M5.5 19.25H9.5V15.95C9.5 15.0111 10.2611 14.25 11.2 14.25H12.8C13.7389 14.25 14.5 15.0111 14.5 15.95V19.25H18.5V9.5L12 4.625L5.5 9.5V19.25ZM4 19.75C4 20.3023 4.44772 20.75 5 20.75H10C10.5523 20.75 11 20.3023 11 19.75V15.95C11 15.8395 11.0895 15.75 11.2 15.75H12.8C12.9105 15.75 13 15.8395 13 15.95V19.75C13 20.3023 13.4477 20.75 14 20.75H19C19.5523 20.75 20 20.3023 20 19.75V9.25C20 8.93524 19.8518 8.63885 19.6 8.45L12.6 3.2C12.2444 2.93333 11.7556 2.93333 11.4 3.2L4.4 8.45C4.14819 8.63885 4 8.93524 4 9.25V19.75Z" fill="white"/>
</svg>
