<svg width="24" height="24" viewBox="0 0 24 24" fill="none" xmlns="http://www.w3.org/2000/svg">
<path d="M2 5.75C2 5.33579 2.3731 5 2.83333 5H21.1667C21.6269 5 22 5.33579 22 5.75C22 6.16421 21.6269 6.5 21.1667 6.5H2.83333C2.3731 6.5 2 6.16421 2 5.75Z" fill="white"/>
<path d="M2 11.25C2 10.8358 2.3731 10.5 2.83333 10.5H19.1667C19.6269 10.5 20 10.8358 20 11.25C20 11.6642 19.6269 12 19.1667 12H2.83333C2.3731 12 2 11.6642 2 11.25Z" fill="white"/>
<path d="M2 16.75C2 16.3358 2.3731 16 2.83333 16H15.1667C15.6269 16 16 16.3358 16 16.75C16 17.1642 15.6269 17.5 15.1667 17.5H2.83333C2.3731 17.5 2 17.1642 2 16.75Z" fill="white"/>
</svg>
