<svg width="24" height="24" viewBox="0 0 24 24" fill="none" xmlns="http://www.w3.org/2000/svg">
<path d="M10.4058 4.49714C10.8849 4.20142 11.4369 4.0448 12 4.0448C12.5631 4.0448 13.1151 4.20142 13.5943 4.49714L20.6743 8.86571C20.7511 8.91305 20.8147 8.979 20.8592 9.05746C20.9037 9.13592 20.9276 9.22434 20.9288 9.31452C20.93 9.4047 20.9085 9.49373 20.8661 9.57336C20.8237 9.65298 20.7619 9.72062 20.6865 9.77L17.7143 11.7129V16.4643C17.7143 16.6757 17.5986 16.8071 17.4622 16.9393C17.3679 17.0314 17.2704 17.1202 17.17 17.2057C16.8261 17.4991 16.4581 17.7631 16.07 17.995C15.1186 18.5664 13.7293 19.1429 12 19.1429C10.2715 19.1429 8.88147 18.5664 7.93004 17.995C7.54193 17.7631 7.17397 17.4991 6.83004 17.2057C6.72956 17.1201 6.63189 17.0312 6.53718 16.9393C6.40218 16.8071 6.28575 16.6786 6.28575 16.4643V11.7129L4.14289 10.3121V14.6786C4.14289 14.8206 4.08645 14.9569 3.98599 15.0574C3.88552 15.1578 3.74926 15.2143 3.60718 15.2143C3.4651 15.2143 3.32884 15.1578 3.22837 15.0574C3.12791 14.9569 3.07147 14.8206 3.07147 14.6786V9.5C3.07147 9.46928 3.07432 9.43928 3.07861 9.41071C3.0609 9.30559 3.07496 9.19758 3.11899 9.10049C3.16301 9.0034 3.23501 8.92166 3.32575 8.86571L10.4058 4.49714ZM7.35718 12.4136V16.2407C7.70303 16.5559 8.07941 16.8359 8.48075 17.0764C9.31504 17.5764 10.515 18.0714 12 18.0714C13.4858 18.0714 14.6858 17.5764 15.5193 17.0764C15.9207 16.8358 16.297 16.5559 16.6429 16.2407V12.4136L13.6615 14.3636C13.1675 14.6866 12.5902 14.8586 12 14.8586C11.4099 14.8586 10.8325 14.6866 10.3386 14.3636L7.35718 12.4136ZM13.0315 5.40857C12.7214 5.21728 12.3643 5.11598 12 5.11598C11.6357 5.11598 11.2786 5.21728 10.9686 5.40857L4.60575 9.33428L10.925 13.4664C11.2446 13.6754 11.6182 13.7867 12 13.7867C12.3819 13.7867 12.7554 13.6754 13.075 13.4664L19.3943 9.33428L16.2129 7.37143L13.0315 5.40857Z" fill="white"/>
</svg>
