<svg width="24" height="24" viewBox="0 0 24 24" fill="none" xmlns="http://www.w3.org/2000/svg">
<path fill-rule="evenodd" clip-rule="evenodd" d="M4.5 16.0591V19.5H19.5V15.0591C19.4897 15.0499 19.4796 15.0403 19.4697 15.0304L16.1768 11.7375C16.0791 11.6399 15.9209 11.6399 15.8232 11.7375L11.7374 15.8233C11.054 16.5067 9.94598 16.5067 9.26256 15.8233L7.17678 13.7375C7.07915 13.6399 6.92085 13.6399 6.82322 13.7375L4.53033 16.0304C4.52042 16.0403 4.51031 16.0499 4.5 16.0591ZM4.5 13.9394L5.76256 12.6769C6.44598 11.9935 7.55402 11.9935 8.23744 12.6769L10.3232 14.7627C10.4209 14.8603 10.5791 14.8603 10.6768 14.7627L14.7626 10.6769C15.446 9.99345 16.554 9.99345 17.2374 10.6769L19.5 12.9394V4.5H4.5V13.9394ZM4 3C3.44772 3 3 3.44772 3 4V20C3 20.5523 3.44772 21 4 21H20C20.5523 21 21 20.5523 21 20V4C21 3.44772 20.5523 3 20 3H4ZM10.25 10.5C11.0784 10.5 11.75 9.82843 11.75 9C11.75 8.17157 11.0784 7.5 10.25 7.5C9.42157 7.5 8.75 8.17157 8.75 9C8.75 9.82843 9.42157 10.5 10.25 10.5Z" fill="white"/>
</svg>
