<svg width="24" height="24" viewBox="0 0 24 24" fill="none" xmlns="http://www.w3.org/2000/svg">
<path d="M6.92644 18.1264C6.63543 18.4174 6.16362 18.4174 5.87262 18.1264V18.1264C5.58161 17.8354 5.58161 17.3636 5.87262 17.0726L10.9457 11.9995L5.87262 6.92644C5.58161 6.63544 5.58161 6.16362 5.87262 5.87262V5.87262C6.16362 5.58161 6.63543 5.58161 6.92644 5.87262L11.9995 10.9457L17.0726 5.87262C17.3636 5.58161 17.8354 5.58161 18.1264 5.87262V5.87262C18.4174 6.16362 18.4174 6.63544 18.1264 6.92644L13.0534 11.9995L18.1264 17.0726C18.4174 17.3636 18.4174 17.8354 18.1264 18.1264V18.1264C17.8354 18.4174 17.3636 18.4174 17.0726 18.1264L11.9995 13.0534L6.92644 18.1264Z" fill="white"/>
</svg>
