<svg width="24" height="24" viewBox="0 0 24 24" fill="none" xmlns="http://www.w3.org/2000/svg">
<path fill-rule="evenodd" clip-rule="evenodd" d="M12 4.75C7.99575 4.75 4.75 7.99575 4.75 12C4.75 16.0042 7.99575 19.25 12 19.25C16.0042 19.25 19.25 16.0042 19.25 12C19.25 7.99575 16.0042 4.75 12 4.75ZM3.25 12C3.25 7.16732 7.16732 3.25 12 3.25C16.8327 3.25 20.75 7.16732 20.75 12C20.75 16.8327 16.8327 20.75 12 20.75C7.16732 20.75 3.25 16.8327 3.25 12Z" fill="white"/>
<path d="M11.0293 14.0303C11.0498 12.2393 11.5762 11.6924 12.4785 11.1318C13.0527 10.7832 13.4902 10.2773 13.4902 9.55957C13.4902 8.70508 12.834 8.16504 12.0137 8.16504C11.2754 8.16504 10.5576 8.61621 10.4961 9.62793H9.01953C9.07422 7.88477 10.3867 6.93457 12.0137 6.93457C13.791 6.93457 14.9805 8.00098 14.9805 9.55957C14.9805 10.6602 14.4541 11.3916 13.5859 11.9248C12.7656 12.4238 12.4443 12.916 12.4238 14.0303V14.1123H11.0293V14.0303ZM10.8105 16.0947C10.8037 15.5615 11.248 15.124 11.7812 15.124C12.3076 15.124 12.7451 15.5615 12.752 16.0947C12.7451 16.6279 12.3076 17.0586 11.7812 17.0654C11.248 17.0586 10.8037 16.6279 10.8105 16.0947Z" fill="white"/>
</svg>
