<svg width="24" height="24" viewBox="0 0 24 24" fill="none" xmlns="http://www.w3.org/2000/svg">
<path d="M20.25 19H19V4.5C19 4.10218 18.842 3.72064 18.5607 3.43934C18.2794 3.15804 17.8978 3 17.5 3H6.5C6.10218 3 5.72064 3.15804 5.43934 3.43934C5.15804 3.72064 5 4.10218 5 4.5V19H3.75C3.55109 19 3.36032 19.079 3.21967 19.2197C3.07902 19.3603 3 19.5511 3 19.75C3 19.9489 3.07902 20.1397 3.21967 20.2803C3.36032 20.421 3.55109 20.5 3.75 20.5H20.25C20.4489 20.5 20.6397 20.421 20.7803 20.2803C20.921 20.1397 21 19.9489 21 19.75C21 19.5511 20.921 19.3603 20.7803 19.2197C20.6397 19.079 20.4489 19 20.25 19ZM6.5 4.5H17.5V19H6.5V4.5ZM15.8295 11.125C15.8295 11.3475 15.7635 11.565 15.6399 11.75C15.5163 11.935 15.3406 12.0792 15.135 12.1644C14.9295 12.2495 14.7033 12.2718 14.485 12.2284C14.2668 12.185 14.0663 12.0778 13.909 11.9205C13.7517 11.7632 13.6445 11.5627 13.6011 11.3445C13.5577 11.1262 13.58 10.9 13.6651 10.6945C13.7503 10.4889 13.8945 10.3132 14.0795 10.1896C14.2645 10.066 14.482 10 14.7045 10C15.0029 10 15.289 10.1185 15.5 10.3295C15.711 10.5405 15.8295 10.8266 15.8295 11.125Z" fill="white"/>
</svg>
