<svg width="24" height="24" viewBox="0 0 24 24" fill="none" xmlns="http://www.w3.org/2000/svg">
<path d="M10 6.75C10 7.16421 9.66422 7.5 9.25 7.5H6C3.51472 7.5 1.5 9.51472 1.5 12C1.5 14.4853 3.51472 16.5 6 16.5H9.25C9.66422 16.5 10 16.8358 10 17.25C10 17.6642 9.66422 18 9.25 18H6C2.68629 18 0 15.3137 0 12C0 8.68629 2.68629 6 6 6H9.25C9.66422 6 10 6.33579 10 6.75Z" fill="white"/>
<path d="M14.75 7.5C14.3358 7.5 14 7.16421 14 6.75C14 6.33579 14.3358 6 14.75 6H18C21.3137 6 24 8.68629 24 12C24 15.3137 21.3137 18 18 18H14.75C14.3358 18 14 17.6642 14 17.25C14 16.8358 14.3358 16.5 14.75 16.5H18C20.4853 16.5 22.5 14.4853 22.5 12C22.5 9.51472 20.4853 7.5 18 7.5H14.75Z" fill="white"/>
<path d="M18 12C18 12.4142 17.6642 12.75 17.25 12.75H6.75C6.33579 12.75 6 12.4142 6 12C6 11.5858 6.33579 11.25 6.75 11.25H17.25C17.6642 11.25 18 11.5858 18 12Z" fill="white"/>
</svg>
