<svg width="24" height="24" viewBox="0 0 24 24" fill="none" xmlns="http://www.w3.org/2000/svg">
<path fill-rule="evenodd" clip-rule="evenodd" d="M5.75 4.25V19.75H18.25V8.25H15.6C15.242 8.25 14.8986 8.10777 14.6454 7.85459C14.3922 7.60142 14.25 7.25804 14.25 6.9V4.25H5.75ZM15.75 6.75H17.6893L15.75 4.81066V6.75ZM19.75 19.9V7.5V7.25094C19.7503 7.07326 19.7156 6.89726 19.6477 6.73304C19.5797 6.56855 19.4799 6.41911 19.354 6.29334L16.2067 3.146C15.9537 2.89275 15.6099 2.75032 15.252 2.75H15H5.6C5.24196 2.75 4.89858 2.89223 4.64541 3.14541C4.39223 3.39858 4.25 3.74196 4.25 4.1V19.9C4.25 20.0773 4.28492 20.2528 4.35276 20.4166C4.42061 20.5804 4.52005 20.7292 4.64541 20.8546C4.77076 20.98 4.91959 21.0794 5.08338 21.1472C5.24717 21.2151 5.42272 21.25 5.6 21.25H18.4C18.5773 21.25 18.7528 21.2151 18.9166 21.1472C19.0804 21.0794 19.2292 20.98 19.3546 20.8546C19.48 20.7292 19.5794 20.5804 19.6472 20.4166C19.7151 20.2528 19.75 20.0773 19.75 19.9ZM11.9994 9.22852C12.386 9.22852 12.6994 9.54192 12.6994 9.92852V12.2952H15.0661C15.4527 12.2952 15.7661 12.6086 15.7661 12.9952C15.7661 13.3818 15.4527 13.6952 15.0661 13.6952H12.6994V16.0723C12.6994 16.4589 12.386 16.7723 11.9994 16.7723C11.6128 16.7723 11.2994 16.4589 11.2994 16.0723V13.6952H8.93389C8.54729 13.6952 8.23389 13.3818 8.23389 12.9952C8.23389 12.6086 8.54729 12.2952 8.93389 12.2952H11.2994V9.92852C11.2994 9.54192 11.6128 9.22852 11.9994 9.22852Z" fill="white"/>
</svg>
