<svg width="24" height="24" viewBox="0 0 24 24" fill="none" xmlns="http://www.w3.org/2000/svg">
<path fill-rule="evenodd" clip-rule="evenodd" d="M9.02386 18.3834H4C3.73479 18.3834 3.48043 18.2782 3.2929 18.0909C3.10536 17.9036 3 17.6495 3 17.3846V15.3871C2.99981 15.2559 3.0256 15.126 3.07589 15.0048C3.12617 14.8836 3.19996 14.7735 3.293 14.6809L5 12.976V9.99123C5 6.19804 8.22918 3 12 3C15.7711 3 19 6.19762 19 9.99123V12.976L20.707 14.6809C20.8 14.7735 20.8738 14.8836 20.9241 15.0048C20.9744 15.126 21.0002 15.2559 21 15.3871V17.3846C21 17.6495 20.8946 17.9036 20.7071 18.0909C20.5196 18.2782 20.2652 18.3834 20 18.3834H14.9761C14.7893 19.8589 13.5281 21 12 21C10.4719 21 9.2107 19.8589 9.02386 18.3834ZM17.5 9.99123V13.5966L19.5 15.5941V16.8852H4.5V15.5941L6.5 13.5966V9.99123C6.5 7.02924 9.05381 4.49816 12 4.49816C14.9465 4.49816 17.5 7.02884 17.5 9.99123ZM10.5486 18.3834C10.7169 19.0269 11.3029 19.5018 12 19.5018C12.6971 19.5018 13.2831 19.0269 13.4514 18.3834H10.5486Z" fill="white"/>
</svg>
