<svg width="24" height="24" viewBox="0 0 24 24" fill="none" xmlns="http://www.w3.org/2000/svg">
<path d="M18.437 5.56357C18.3022 5.42892 18.134 5.33263 17.9497 5.28461C17.7654 5.23659 17.5716 5.23857 17.3883 5.29036H17.3783L4.5253 9.19031C4.31607 9.25048 4.13014 9.37296 3.99226 9.54143C3.85439 9.70991 3.7711 9.91639 3.75351 10.1334C3.73591 10.3504 3.78483 10.5676 3.89376 10.7561C4.00269 10.9446 4.16645 11.0954 4.36324 11.1885L10.0967 13.9039L12.812 19.6373C12.8978 19.8209 13.0342 19.9761 13.2053 20.0847C13.3764 20.1933 13.575 20.2506 13.7776 20.25C13.8084 20.25 13.8392 20.2487 13.87 20.246C14.0863 20.2285 14.292 20.1452 14.4595 20.0075C14.6271 19.8697 14.7485 19.684 14.8075 19.4752L18.7048 6.62226V6.61222C18.7573 6.42938 18.7601 6.23588 18.713 6.05158C18.666 5.86729 18.5707 5.69885 18.437 5.56357ZM13.7837 19.1685L13.7803 19.1779L11.1446 13.6139L14.308 10.4499C14.4042 10.3486 14.4571 10.2137 14.4553 10.0741C14.4535 9.93436 14.3972 9.80089 14.2984 9.70211C14.1996 9.60332 14.0662 9.54704 13.9265 9.54525C13.7868 9.54346 13.6519 9.59631 13.5506 9.69253L10.3866 12.8559L4.82194 10.2202H4.83132L17.6789 6.32159L13.7837 19.1685Z" fill="white"/>
</svg>
