<svg width="24" height="24" viewBox="0 0 24 24" fill="none" xmlns="http://www.w3.org/2000/svg">
<path d="M18.7238 8.31981L15.4749 5.07085C15.3804 4.97633 15.2682 4.90135 15.1447 4.85019C15.0212 4.79903 14.8888 4.77271 14.7551 4.77271C14.6215 4.77271 14.4891 4.79903 14.3656 4.85019C14.2421 4.90135 14.1299 4.97633 14.0354 5.07085L5.07078 14.0362C4.97607 14.1306 4.90098 14.2428 4.84982 14.3663C4.79867 14.4898 4.77246 14.6222 4.77271 14.7559V18.0049C4.77271 18.2748 4.87994 18.5337 5.07081 18.7246C5.26169 18.9155 5.52057 19.0227 5.79051 19.0227H9.03947C9.17317 19.023 9.30559 18.9967 9.42912 18.9456C9.55264 18.8944 9.66482 18.8193 9.7592 18.7246L18.7238 9.75927C18.8184 9.66476 18.8933 9.55255 18.9445 9.42906C18.9956 9.30557 19.022 9.17321 19.022 9.03954C19.022 8.90587 18.9956 8.77351 18.9445 8.65002C18.8933 8.52653 18.8184 8.41432 18.7238 8.31981ZM5.82613 14.5153L12.1881 8.1526L13.6065 9.5717L7.24451 15.9337L5.82613 14.5153ZM5.64511 18.0049V15.568L8.22668 18.1503H5.79051C5.75194 18.1503 5.71496 18.135 5.68769 18.1077C5.66043 18.0804 5.64511 18.0435 5.64511 18.0049ZM9.28011 17.9693L7.86173 16.5509L14.2237 10.1882L15.6421 11.6073L9.28011 17.9693ZM18.1066 9.14277L16.2593 10.9901L12.8053 7.5361L14.6526 5.68807C14.6661 5.67455 14.6822 5.66383 14.6998 5.65651C14.7175 5.64919 14.7364 5.64543 14.7555 5.64543C14.7746 5.64543 14.7935 5.64919 14.8112 5.65651C14.8288 5.66383 14.8449 5.67455 14.8584 5.68807L18.1066 8.93703C18.1201 8.95054 18.1309 8.96657 18.1382 8.98422C18.1455 9.00188 18.1493 9.0208 18.1493 9.0399C18.1493 9.05901 18.1455 9.07793 18.1382 9.09558C18.1309 9.11324 18.1201 9.12927 18.1066 9.14277Z" fill="white"/>
</svg>
