<svg width="24" height="24" viewBox="0 0 24 24" fill="none" xmlns="http://www.w3.org/2000/svg">
<path fill-rule="evenodd" clip-rule="evenodd" d="M12 2.875C9.37665 2.875 7.25 5.00165 7.25 7.625V9.125H6C5.17157 9.125 4.5 9.79657 4.5 10.625V19.625C4.5 20.4534 5.17157 21.125 6 21.125H18C18.8284 21.125 19.5 20.4534 19.5 19.625V10.625C19.5 9.79657 18.8284 9.125 18 9.125H16.75V7.625C16.75 5.00165 14.6234 2.875 12 2.875ZM15.25 9.125V7.625C15.25 5.83007 13.7949 4.375 12 4.375C10.2051 4.375 8.75 5.83007 8.75 7.625V9.125H15.25ZM6 19.625V10.625H18V19.625H6Z" fill="white"/>
</svg>
