<svg width="24" height="24" viewBox="0 0 24 24" fill="none" xmlns="http://www.w3.org/2000/svg">
<path d="M8.25 7C7.83579 7 7.5 7.33579 7.5 7.75C7.5 8.16421 7.83579 8.5 8.25 8.5H15.75C16.1642 8.5 16.5 8.16421 16.5 7.75C16.5 7.33579 16.1642 7 15.75 7H8.25Z" fill="white"/>
<path d="M7.5 10.75C7.5 10.3358 7.83579 10 8.25 10H15.75C16.1642 10 16.5 10.3358 16.5 10.75C16.5 11.1642 16.1642 11.5 15.75 11.5H8.25C7.83579 11.5 7.5 11.1642 7.5 10.75Z" fill="white"/>
<path d="M8.25 13C7.83579 13 7.5 13.3358 7.5 13.75C7.5 14.1642 7.83579 14.5 8.25 14.5H11.25C11.6642 14.5 12 14.1642 12 13.75C12 13.3358 11.6642 13 11.25 13H8.25Z" fill="white"/>
<path fill-rule="evenodd" clip-rule="evenodd" d="M4 4C4 3.44772 4.44772 3 5 3H19C19.5523 3 20 3.44772 20 4V20C20 20.5523 19.5523 21 19 21H5C4.44772 21 4 20.5523 4 20V4ZM18.5 4.5V19.5H5.5V4.5H18.5Z" fill="white"/>
</svg>
