<svg width="24" height="24" viewBox="0 0 24 24" fill="none" xmlns="http://www.w3.org/2000/svg">
<path fill-rule="evenodd" clip-rule="evenodd" d="M5.75 19.75V4.25H14.25V6.9C14.25 7.25804 14.3922 7.60142 14.6454 7.85459C14.8986 8.10777 15.242 8.25 15.6 8.25H18.25V19.75H5.75ZM19.7079 7.25173C19.7077 7.25116 19.7075 7.25058 19.7073 7.25H19.75V7.25094C19.7503 7.07326 19.7156 6.89726 19.6477 6.73304C19.5797 6.56855 19.4799 6.41911 19.354 6.29334L16.2067 3.146C15.9537 2.89275 15.6106 2.75032 15.2527 2.75H15.252H15H5.6C5.24196 2.75 4.89858 2.89223 4.64541 3.14541C4.39223 3.39858 4.25 3.74196 4.25 4.1V19.9C4.25 20.0773 4.28492 20.2528 4.35276 20.4166C4.42061 20.5804 4.52005 20.7292 4.64541 20.8546C4.77076 20.98 4.91959 21.0794 5.08338 21.1472C5.24717 21.2151 5.42272 21.25 5.6 21.25H18.4C18.5773 21.25 18.7528 21.2151 18.9166 21.1472C19.0804 21.0794 19.2292 20.98 19.3546 20.8546C19.48 20.7292 19.5794 20.5804 19.6472 20.4166C19.7151 20.2528 19.75 20.0773 19.75 19.9V7.5V7.25094L19.75 7.25184L19.7079 7.25173ZM15.75 4.81066L17.6893 6.75H15.75V4.81066Z" fill="white"/>
</svg>
