<svg width="24" height="24" viewBox="0 0 24 24" fill="none" xmlns="http://www.w3.org/2000/svg">
<path fill-rule="evenodd" clip-rule="evenodd" d="M12 20.5C16.6944 20.5 20.5 16.6944 20.5 12C20.5 7.30558 16.6944 3.5 12 3.5C7.30558 3.5 3.5 7.30558 3.5 12C3.5 16.6944 7.30558 20.5 12 20.5ZM12 22C17.5228 22 22 17.5228 22 12C22 6.47715 17.5228 2 12 2C6.47715 2 2 6.47715 2 12C2 17.5228 6.47715 22 12 22ZM9 8.75C9 8.33579 9.33579 8 9.75 8C10.1642 8 10.5 8.33579 10.5 8.75V15.25C10.5 15.6642 10.1642 16 9.75 16C9.33579 16 9 15.6642 9 15.25V8.75ZM14.25 8C13.8358 8 13.5 8.33579 13.5 8.75V15.25C13.5 15.6642 13.8358 16 14.25 16C14.6642 16 15 15.6642 15 15.25V8.75C15 8.33579 14.6642 8 14.25 8Z" fill="white"/>
</svg>
