<svg width="24" height="24" viewBox="0 0 24 24" fill="none" xmlns="http://www.w3.org/2000/svg">
<path d="M12.0385 19.5C9.94474 19.5 8.1713 18.7735 6.71819 17.3207C5.26507 15.8679 4.53851 14.0948 4.53851 12.0015C4.53851 9.90818 5.26507 8.13461 6.71819 6.68078C8.1713 5.22693 9.94474 4.5 12.0385 4.5C13.2077 4.5 14.3141 4.75994 15.3577 5.27982C16.4013 5.79969 17.2692 6.53335 17.9615 7.4808V5.24999C17.9615 4.83578 18.2973 4.5 18.7115 4.5C19.1257 4.5 19.4615 4.83578 19.4615 5.24999V9.61533C19.4615 10.1676 19.0138 10.6153 18.4615 10.6153H14.0962C13.682 10.6153 13.3462 10.2796 13.3462 9.86535C13.3462 9.45115 13.682 9.11538 14.0962 9.11538H17.2962C16.7692 8.14999 16.0385 7.38941 15.1039 6.83363C14.1692 6.27786 13.1475 5.99998 12.0385 5.99998C10.3718 5.99998 8.95516 6.58331 7.78849 7.74998C6.62182 8.91664 6.03849 10.3333 6.03849 12C6.03849 13.6666 6.62182 15.0833 7.78849 16.25C8.95516 17.4166 10.3718 18 12.0385 18C13.3218 18 14.4802 17.6333 15.5135 16.9C16.3945 16.2747 17.0514 15.4799 17.4841 14.5155C17.62 14.2125 17.9111 14 18.2431 14C18.7588 14 19.1334 14.4936 18.933 14.9688C18.4287 16.1644 17.6469 17.1661 16.5875 17.974C15.2535 18.9913 13.7372 19.5 12.0385 19.5Z" fill="white"/>
</svg>
