<svg width="24" height="24" viewBox="0 0 24 24" fill="none" xmlns="http://www.w3.org/2000/svg">
<path fill-rule="evenodd" clip-rule="evenodd" d="M16.2854 4.14286H18.4283C18.8072 4.14286 19.1705 4.29337 19.4384 4.56128C19.7064 4.82919 19.8569 5.19255 19.8569 5.57143V20.5714C19.8569 20.9503 19.7064 21.3137 19.4384 21.5816C19.1705 21.8495 18.8072 22 18.4283 22H5.57115C5.19227 22 4.82891 21.8495 4.561 21.5816C4.29309 21.3137 4.14258 20.9503 4.14258 20.5714V5.57143C4.14258 5.19255 4.29309 4.82919 4.561 4.56128C4.82891 4.29337 5.19227 4.14286 5.57115 4.14286H7.71401V3.42857C7.71401 3.04969 7.86452 2.68633 8.13243 2.41842C8.40033 2.15051 8.7637 2 9.14258 2H14.8569C15.2357 2 15.5991 2.15051 15.867 2.41842C16.1349 2.68633 16.2854 3.04969 16.2854 3.42857V4.14286ZM14.8569 3.42857H9.14258V6.28571H14.8569V3.42857ZM5.57115 20.5714H18.4283V5.57143H16.2854V7.71429H7.71401V5.57143H5.57115V20.5714ZM13.4282 13.4286H7.71393V14.8572H13.4282V13.4286ZM16.2854 9.85718H7.71393V11.2857H16.2854V9.85718ZM11.2854 17H7.71393V18.4286H11.2854V17Z" fill="white"/>
</svg>
