<svg width="24" height="24" viewBox="0 0 24 24" fill="none" xmlns="http://www.w3.org/2000/svg">
<path d="M6.41081 14.6477C6.07186 14.9866 5.50089 14.9018 5.33137 14.4534C5.24126 14.2151 5.16463 13.9734 5.10148 13.7284C4.95973 13.1784 4.88885 12.6176 4.88885 12.0459C4.88885 10.0614 5.57938 8.37238 6.96043 6.97897C8.3415 5.58556 10.0214 4.88886 12 4.88886H12.7165L11.5024 3.6748C11.2354 3.40779 11.2354 2.97486 11.5024 2.70785C11.7694 2.44083 12.2024 2.44083 12.4694 2.70785L14.6314 4.86991C15.022 5.26043 15.022 5.89359 14.6314 6.28412L12.4694 8.44618C12.2024 8.7132 11.7694 8.7132 11.5024 8.44618C11.2354 8.17916 11.2354 7.74624 11.5024 7.47922L12.7165 6.26517H12C10.406 6.26517 9.05172 6.8263 7.9371 7.94857C6.82248 9.07084 6.26517 10.4366 6.26517 12.0459C6.26517 12.4259 6.30663 12.8055 6.38957 13.1849C6.43759 13.4046 6.49951 13.6212 6.57534 13.8348C6.67544 14.1167 6.62236 14.4361 6.41081 14.6477ZM12.4976 21.2922C12.2306 21.5592 11.7977 21.5592 11.5306 21.2922L9.3686 19.1301C8.97808 18.7396 8.97808 18.1064 9.3686 17.7159L11.5306 15.5539C11.7977 15.2868 12.2306 15.2868 12.4976 15.5539C12.7646 15.8209 12.7646 16.2538 12.4976 16.5208L11.2836 17.7349H12C13.594 17.7349 14.9483 17.1737 16.0629 16.0515C17.1776 14.9292 17.7349 13.5634 17.7349 11.9541C17.7349 11.5742 17.6934 11.1945 17.6105 10.8151C17.5624 10.5954 17.5005 10.3788 17.4247 10.1653C17.3246 9.88333 17.3777 9.56391 17.5892 9.35235C17.9282 9.0134 18.4991 9.09827 18.6687 9.54664C18.7588 9.78498 18.8354 10.0266 18.8986 10.2716C19.0403 10.8216 19.1112 11.3824 19.1112 11.9541C19.1112 13.9387 18.4206 15.6277 17.0396 17.0211C15.6585 18.4145 13.9787 19.1112 12 19.1112H11.2836L12.4976 20.3252C12.7646 20.5922 12.7646 21.0252 12.4976 21.2922Z" fill="white"/>
</svg>
