<svg width="24" height="24" viewBox="0 0 24 24" fill="none" xmlns="http://www.w3.org/2000/svg">
<path fill-rule="evenodd" clip-rule="evenodd" d="M15.1469 16.3796C13.9774 17.2573 12.524 17.7773 10.9492 17.7773C7.08323 17.7773 3.94922 14.6433 3.94922 10.7773C3.94922 6.91135 7.08323 3.77734 10.9492 3.77734C14.8152 3.77734 17.9492 6.91135 17.9492 10.7773C17.9492 12.5279 17.3066 14.1284 16.2445 15.3558L19.8309 18.9422C20.1238 19.2351 20.1238 19.71 19.8309 20.0029C19.538 20.2958 19.0631 20.2958 18.7702 20.0029L15.1469 16.3796ZM16.4492 10.7773C16.4492 13.8149 13.9868 16.2773 10.9492 16.2773C7.91165 16.2773 5.44922 13.8149 5.44922 10.7773C5.44922 7.73978 7.91165 5.27734 10.9492 5.27734C13.9868 5.27734 16.4492 7.73978 16.4492 10.7773Z" fill="white"/>
</svg>
