<svg width="24" height="24" viewBox="0 0 24 24" fill="none" xmlns="http://www.w3.org/2000/svg">
<path fill-rule="evenodd" clip-rule="evenodd" d="M18.4932 11.7373L5.35736 19.0409L7.48439 13.5203L13.7135 12.4013C14.0496 12.3409 14.2942 12.0484 14.294 11.7069C14.2938 11.3654 14.0489 11.0731 13.7127 11.0131L7.44309 9.89454L4.99453 4.99366L18.4932 11.7373ZM18.9546 11.4795L18.9533 11.4804L18.9546 11.4795ZM20.271 11.6949C20.2848 12.2067 19.9332 12.5503 19.6175 12.7258L5.07359 20.8123C4.92731 20.8937 4.75053 20.9684 4.55673 20.9923C4.3605 21.0165 4.07651 20.9933 3.8374 20.783C3.59949 20.5737 3.53995 20.2968 3.53721 20.1019C3.53448 19.908 3.58325 19.7237 3.64308 19.5677L3.64348 19.5666L6.3111 12.6429C6.39969 12.413 6.60188 12.246 6.84441 12.2024L9.58745 11.7097L6.84674 11.2207C6.62736 11.1815 6.4394 11.041 6.3398 10.8417L3.1622 4.48159L3.16163 4.48045C3.08967 4.33577 3.02301 4.16112 3.00473 3.97281C2.98682 3.78825 3.00965 3.48513 3.25366 3.24481C3.49652 3.00563 3.79858 2.98643 3.98157 3.00554C4.16933 3.02514 4.34437 3.09238 4.49108 3.16567L19.5633 10.6955C19.8892 10.8585 20.2573 11.1848 20.271 11.6949Z" fill="white"/>
</svg>
