<svg width="24" height="24" viewBox="0 0 24 24" fill="none" xmlns="http://www.w3.org/2000/svg">
<path fill-rule="evenodd" clip-rule="evenodd" d="M16.0449 3C15.6127 2.99985 15.1857 3.09602 14.794 3.28172C14.4023 3.46741 14.0555 3.73811 13.7781 4.07472C13.5007 4.41134 13.2994 4.80566 13.1885 5.22987C13.0775 5.65408 13.0595 6.09785 13.1359 6.52987L8.83593 9.58713C8.81443 9.60223 8.79379 9.61856 8.77412 9.63605C8.33788 9.28978 7.8146 9.07496 7.26393 9.01608C6.71327 8.9572 6.1574 9.05663 5.6597 9.30303C5.16199 9.54943 4.7425 9.93288 4.44905 10.4097C4.1556 10.8864 4 11.4374 4 11.9996C4 12.5618 4.1556 13.1128 4.44905 13.5895C4.7425 14.0663 5.16199 14.4498 5.6597 14.6962C6.1574 14.9426 6.71327 15.042 7.26393 14.9831C7.8146 14.9242 8.33788 14.7094 8.77412 14.3632C8.79376 14.381 8.8144 14.3976 8.83593 14.413L13.1359 17.4703C13.0082 18.1928 13.1459 18.9378 13.5229 19.5642C13.8998 20.1906 14.4899 20.6549 15.1813 20.8693C15.8727 21.0836 16.6176 21.0331 17.2748 20.7273C17.932 20.4215 18.456 19.8816 18.7476 19.2098C19.0391 18.5381 19.078 17.7811 18.8569 17.0822C18.6357 16.3834 18.1699 15.7911 17.5475 15.4175C16.9252 15.0439 16.1896 14.915 15.4799 15.0551C14.7703 15.1953 14.1359 15.5948 13.6968 16.1779L9.62502 13.2841C9.80683 12.8945 9.90865 12.4598 9.90865 12.0001C9.90865 11.5404 9.80683 11.1047 9.62502 10.7161L13.6977 7.82127C14.0028 8.22675 14.4047 8.54652 14.8654 8.75033C15.3261 8.95415 15.8303 9.03528 16.3305 8.98605C16.8307 8.93682 17.3103 8.75886 17.7238 8.46899C18.1374 8.17912 18.4713 7.78693 18.694 7.32951C18.9167 6.87208 19.0209 6.36453 18.9965 5.85486C18.9722 5.34519 18.8203 4.85024 18.5551 4.41681C18.2899 3.98338 17.9202 3.6258 17.481 3.37789C17.0417 3.12997 16.5475 2.99991 16.0449 3ZM14.4541 6.00002C14.4541 5.57159 14.6217 5.16071 14.92 4.85776C15.2184 4.55482 15.623 4.38463 16.0449 4.38463C16.4669 4.38463 16.8715 4.55482 17.1699 4.85776C17.4682 5.16071 17.6358 5.57159 17.6358 6.00002C17.6358 6.42845 17.4682 6.83933 17.1699 7.14228C16.8715 7.44523 16.4669 7.61542 16.0449 7.61542C15.623 7.61542 15.2184 7.44523 14.92 7.14228C14.6217 6.83933 14.4541 6.42845 14.4541 6.00002ZM6.95414 10.3847C6.53221 10.3847 6.12756 10.5549 5.82921 10.8578C5.53086 11.1608 5.36324 11.5716 5.36324 12.0001C5.36324 12.4285 5.53086 12.8394 5.82921 13.1423C6.12756 13.4453 6.53221 13.6155 6.95414 13.6155C7.37607 13.6155 7.78072 13.4453 8.07907 13.1423C8.37742 12.8394 8.54503 12.4285 8.54503 12.0001C8.54503 11.5716 8.37742 11.1608 8.07907 10.8578C7.78072 10.5549 7.37607 10.3847 6.95414 10.3847ZM16.0449 16.3847C15.623 16.3847 15.2184 16.5549 14.92 16.8579C14.6217 17.1608 14.4541 17.5717 14.4541 18.0001C14.4541 18.4285 14.6217 18.8394 14.92 19.1424C15.2184 19.4453 15.623 19.6155 16.0449 19.6155C16.4669 19.6155 16.8715 19.4453 17.1699 19.1424C17.4682 18.8394 17.6358 18.4285 17.6358 18.0001C17.6358 17.5717 17.4682 17.1608 17.1699 16.8579C16.8715 16.5549 16.4669 16.3847 16.0449 16.3847Z" fill="white"/>
</svg>
