<svg width="24" height="24" viewBox="0 0 24 24" fill="none" xmlns="http://www.w3.org/2000/svg">
<path fill-rule="evenodd" clip-rule="evenodd" d="M3 4C3 3.44772 3.44772 3 4 3H20C20.5523 3 21 3.44772 21 4V20C21 20.5523 20.5523 21 20 21H4C3.44772 21 3 20.5523 3 20V4ZM19.5 4.5V19.5H4.5V4.5H19.5Z" fill="white"/>
<path d="M11.3178 15.177C10.9272 15.5675 10.2941 15.5675 9.90356 15.177L7.22489 12.4983C6.92963 12.2031 6.92964 11.7244 7.2249 11.4291C7.52015 11.1339 7.99885 11.1339 8.2941 11.4291L10.6107 13.7457L15.7059 8.65044C16.0012 8.35519 16.4799 8.35519 16.7751 8.65044C17.0704 8.94569 17.0704 9.4244 16.7751 9.71966L11.3178 15.177Z" fill="white"/>
</svg>
