<svg width="24" height="24" viewBox="0 0 24 24" fill="none" xmlns="http://www.w3.org/2000/svg">
<path fill-rule="evenodd" clip-rule="evenodd" d="M11.9936 12.6442C11.8907 12.6442 11.8008 12.6185 11.7108 12.5799L7.81618 10.6326L5.07777 12.0018L11.9936 15.4597L15.8048 13.5541C15.8513 13.5224 15.9017 13.4973 15.9546 13.4792L18.9094 12.0018L16.1774 10.6358L12.2892 12.5799C12.1992 12.6313 12.0964 12.6442 12.0064 12.6442H11.9936ZM17.6062 14.0932L20.6319 12.5803C20.7406 12.5277 20.8322 12.4455 20.8963 12.3432C20.9605 12.2409 20.9945 12.1226 20.9945 12.0018C20.9945 11.8811 20.9605 11.7628 20.8963 11.6605C20.8322 11.5582 20.7406 11.476 20.6319 11.4234L17.6125 9.91831L20.6448 8.40217C20.7534 8.34954 20.8451 8.26736 20.9092 8.16506C20.9733 8.06275 21.0073 7.94445 21.0073 7.82371C21.0073 7.70297 20.9733 7.58467 20.9092 7.48236C20.8451 7.38005 20.7534 7.29788 20.6448 7.24525L12.2892 3.06749C12.1093 2.9775 11.8907 2.9775 11.7108 3.06749L3.35525 7.24525C3.24658 7.29788 3.15494 7.38005 3.09081 7.48236C3.02669 7.58467 2.99268 7.70297 2.99268 7.82371C2.99268 7.94445 3.02669 8.06275 3.09081 8.16506C3.15494 8.26736 3.24658 8.34954 3.35525 8.40217L6.38112 9.9151L3.35525 11.4234C3.24658 11.476 3.15494 11.5582 3.09081 11.6605C3.02669 11.7628 2.99268 11.8811 2.99268 12.0018C2.99268 12.1226 3.02669 12.2409 3.09081 12.3432C3.15494 12.4455 3.24658 12.5277 3.35525 12.5803L6.38096 14.0932L3.35525 15.6014C3.24658 15.654 3.15494 15.7362 3.09081 15.8385C3.02669 15.9408 2.99268 16.0591 2.99268 16.1798C2.99268 16.3006 3.02669 16.4189 3.09081 16.5212C3.15494 16.6235 3.24658 16.7057 3.35525 16.7583L11.7108 20.936C11.8008 20.9746 11.8907 21.0003 11.9936 21.0003C12.0836 21.0003 12.1864 20.9875 12.2764 20.936L20.6319 16.7583C20.7406 16.7057 20.8322 16.6235 20.8963 16.5212C20.9605 16.4189 20.9945 16.3006 20.9945 16.1798C20.9945 16.0591 20.9605 15.9408 20.8963 15.8385C20.8322 15.7362 20.7406 15.654 20.6319 15.6014L17.6062 14.0932ZM16.1711 14.8107L12.2764 16.7581C12.1864 16.8095 12.0836 16.8223 11.9936 16.8223C11.8907 16.8223 11.8008 16.7966 11.7108 16.7581L7.81603 14.8107L5.07777 16.1798L11.9936 19.6377L18.9094 16.1798L16.1711 14.8107ZM18.9094 7.82371L15.9536 9.30158C15.9014 9.31951 15.8516 9.34434 15.8056 9.37557L11.9936 11.2816L5.07777 7.82371L11.9936 4.36581L18.9094 7.82371Z" fill="white"/>
</svg>
