<svg width="24" height="24" viewBox="0 0 24 24" fill="none" xmlns="http://www.w3.org/2000/svg">
<path d="M18.8509 12.49V11.5036L20.0887 10.4205C20.3169 10.2194 20.4666 9.94413 20.5114 9.6433C20.5563 9.34247 20.4933 9.03549 20.3337 8.77659L18.8122 6.19786C18.6992 6.00205 18.5366 5.8394 18.3409 5.72625C18.1451 5.6131 17.923 5.55341 17.6969 5.55318C17.5568 5.5521 17.4174 5.57388 17.2843 5.61765L15.7178 6.14629C15.4473 5.96655 15.1651 5.80503 14.8732 5.66277L14.5444 4.03818C14.4855 3.74137 14.324 3.47475 14.0883 3.28499C13.8526 3.09524 13.5576 2.99444 13.2551 3.00024H10.238C9.9354 2.99444 9.64045 3.09524 9.40473 3.28499C9.16901 3.47475 9.00754 3.74137 8.94859 4.03818L8.6198 5.66277C8.32578 5.80499 8.0415 5.96652 7.76882 6.14629L6.23448 5.59186C6.09993 5.5568 5.9606 5.54374 5.82188 5.55318C5.59577 5.55341 5.3737 5.6131 5.17795 5.72625C4.98219 5.8394 4.81963 6.00205 4.70658 6.19786L3.18513 8.77659C3.03465 9.0351 2.97874 9.33789 3.02696 9.63309C3.07518 9.9283 3.22454 10.1976 3.44945 10.3947L4.6679 11.51V12.4964L3.44945 13.5795C3.21818 13.778 3.06474 14.0521 3.01635 14.3531C2.96796 14.654 3.02776 14.9624 3.18513 15.2234L4.70658 17.8021C4.81963 17.998 4.98219 18.1606 5.17795 18.2738C5.3737 18.3869 5.59577 18.4466 5.82188 18.4468C5.962 18.4479 6.10136 18.4261 6.23448 18.3824L7.80106 17.8537C8.07153 18.0334 8.35366 18.195 8.64559 18.3372L8.97438 19.9618C9.03333 20.2586 9.1948 20.5253 9.43052 20.715C9.66624 20.9048 9.96119 21.0056 10.2637 20.9998H13.3066C13.6092 21.0056 13.9041 20.9048 14.1399 20.715C14.3756 20.5253 14.5371 20.2586 14.596 19.9618L14.9248 18.3372C15.2188 18.195 15.5031 18.0335 15.7758 17.8537L17.3359 18.3824C17.469 18.4261 17.6084 18.4479 17.7485 18.4468C17.9746 18.4466 18.1967 18.3869 18.3924 18.2738C18.5882 18.1606 18.7507 17.998 18.8638 17.8021L20.3337 15.2234C20.4842 14.9649 20.5401 14.6621 20.4918 14.3669C20.4436 14.0717 20.2943 13.8025 20.0694 13.6053L18.8509 12.49ZM17.6969 17.1575L15.4857 16.4096C14.968 16.8481 14.3764 17.1908 13.7386 17.4218L13.2809 19.7362H10.238L9.78023 17.4476C9.14742 17.2101 8.55902 16.8679 8.03959 16.4354L5.82188 17.1575L4.30043 14.5787L6.05397 13.0315C5.93476 12.3642 5.93476 11.681 6.05397 11.0136L4.30043 9.42127L5.82188 6.84254L8.03314 7.59037C8.55078 7.15192 9.14238 6.80918 9.78023 6.57822L10.238 4.26381H13.2809L13.7386 6.55244C14.3714 6.78995 14.9598 7.1321 15.4792 7.56459L17.6969 6.84254L19.2184 9.42127L17.4648 10.9685C17.584 11.6358 17.584 12.319 17.4648 12.9864L19.2184 14.5787L17.6969 17.1575Z" fill="white"/>
<path d="M11.7594 15.8681C10.9944 15.8681 10.2465 15.6412 9.61041 15.2162C8.9743 14.7912 8.47852 14.1871 8.18575 13.4803C7.89299 12.7735 7.81638 11.9957 7.96564 11.2454C8.11489 10.495 8.48329 9.80581 9.02425 9.26485C9.56521 8.72388 10.2544 8.35548 11.0048 8.20623C11.7551 8.05698 12.5329 8.13358 13.2397 8.42635C13.9465 8.71912 14.5506 9.2149 14.9756 9.851C15.4006 10.4871 15.6275 11.235 15.6275 12C15.6327 12.5094 15.5362 13.0147 15.3436 13.4864C15.151 13.958 14.8663 14.3865 14.5061 14.7467C14.1459 15.1069 13.7174 15.3916 13.2458 15.5842C12.7741 15.7767 12.2688 15.8733 11.7594 15.8681ZM11.7594 9.42127C11.4186 9.41333 11.0797 9.47461 10.7633 9.60139C10.4468 9.72817 10.1593 9.91783 9.91829 10.1589C9.67723 10.3999 9.48758 10.6874 9.36079 11.0038C9.23401 11.3203 9.17274 11.6592 9.18068 12C9.17274 12.3408 9.23401 12.6797 9.36079 12.9962C9.48758 13.3126 9.67723 13.6001 9.91829 13.8411C10.1593 14.0822 10.4468 14.2718 10.7633 14.3986C11.0797 14.5254 11.4186 14.5867 11.7594 14.5787C12.1002 14.5867 12.4391 14.5254 12.7556 14.3986C13.072 14.2718 13.3595 14.0822 13.6005 13.8411C13.8416 13.6001 14.0312 13.3126 14.158 12.9962C14.2848 12.6797 14.3461 12.3408 14.3381 12C14.3461 11.6592 14.2848 11.3203 14.158 11.0038C14.0312 10.6874 13.8416 10.3999 13.6005 10.1589C13.3595 9.91783 13.072 9.72817 12.7556 9.60139C12.4391 9.47461 12.1002 9.41333 11.7594 9.42127Z" fill="white"/>
</svg>
