<svg width="24" height="24" viewBox="0 0 24 24" fill="none" xmlns="http://www.w3.org/2000/svg">
<path d="M3.75 16.9091C3.75 17.6622 4.36052 18.2727 5.11364 18.2727H7.84198C8.59509 18.2727 9.20561 17.6622 9.20561 16.9091V14.1808C9.20561 13.4276 8.59509 12.8171 7.84198 12.8171H5.11364C4.36052 12.8171 3.75 13.4276 3.75 14.1808V16.9091ZM5.1147 14.1818H7.84091V16.908H5.1147V14.1818ZM10.5671 16.9096C10.5671 17.2862 10.8724 17.592 11.2489 17.592H18.874C19.2505 17.592 19.5558 17.2862 19.5558 16.9096V16.9096C19.5558 16.5331 19.2505 16.2273 18.874 16.2273H11.2489C10.8724 16.2273 10.5671 16.5331 10.5671 16.9096V16.9096ZM3.75 10.092C3.75 10.8451 4.36052 11.4556 5.11364 11.4556H7.84198C8.59509 11.4556 9.20561 10.8451 9.20561 10.092V7.36364C9.20561 6.61052 8.59509 6 7.84198 6H5.11364C4.36052 6 3.75 6.61052 3.75 7.36364V10.092ZM5.1147 7.3647H7.84091V10.0909H5.1147V7.3647ZM11.2489 6.68075C10.8724 6.68075 10.5671 6.98655 10.5671 7.3631V7.3631C10.5671 7.73966 10.8724 8.04545 11.2489 8.04545H18.874C19.2505 8.04545 19.5558 7.73966 19.5558 7.3631V7.3631C19.5558 6.98655 19.2505 6.68075 18.874 6.68075H11.2489ZM10.5671 14.1802C10.5671 14.5568 10.8724 14.8626 11.2489 14.8626H18.874C19.2505 14.8626 19.5558 14.5568 19.5558 14.1802V14.1802C19.5558 13.8037 19.2505 13.4979 18.874 13.4979H11.2489C10.8724 13.4979 10.5671 13.8037 10.5671 14.1802V14.1802ZM10.5671 10.0893C10.5671 10.4659 10.8724 10.7717 11.2489 10.7717H18.874C19.2505 10.7717 19.5558 10.4659 19.5558 10.0893V10.0893C19.5558 9.71275 19.2505 9.40696 18.874 9.40696H11.2489C10.8724 9.40696 10.5671 9.71275 10.5671 10.0893V10.0893Z" fill="white"/>
</svg>
