<svg width="24" height="24" viewBox="0 0 24 24" fill="none" xmlns="http://www.w3.org/2000/svg">
<path fill-rule="evenodd" clip-rule="evenodd" d="M8.45259 9.54924L12.5 6.19261V17.4294L9.60245 14.5895L8.5525 15.6607L9.60245 14.5895C9.13514 14.1314 8.50687 13.8749 7.85253 13.8749H3.5V10.1249H6.85668C7.43949 10.1249 8.00398 9.92128 8.45259 9.54924L7.49504 8.39463L8.45259 9.54924ZM7.49504 8.39463C7.3156 8.54345 7.0898 8.6249 6.85668 8.6249H3C2.44772 8.6249 2 9.07261 2 9.6249V14.3749C2 14.9272 2.44772 15.3749 3 15.3749H7.85253C8.11426 15.3749 8.36557 15.4775 8.5525 15.6607L12.3 19.3337C12.9328 19.954 14 19.5056 14 18.6196V5.12837C14 4.28164 13.0134 3.81812 12.3616 4.35864L7.49504 8.39463ZM20.3065 4.789C20.0259 4.46577 19.5328 4.46748 19.2301 4.77015C18.9275 5.07282 18.9302 5.56162 19.2071 5.88807C19.8403 6.63475 20.3547 7.47654 20.7306 8.38396C21.2055 9.53047 21.4499 10.7593 21.4499 12.0002C21.4499 13.2412 21.2055 14.4701 20.7306 15.6166C20.3547 16.524 19.8403 17.3658 19.2071 18.1125C18.9302 18.4389 18.9275 18.9277 19.2301 19.2304C19.5328 19.533 20.0259 19.5348 20.3065 19.2115C21.0816 18.3186 21.7089 17.3053 22.1627 16.2098C22.7155 14.8752 23 13.4448 23 12.0002C23 10.7363 22.7822 9.48317 22.3574 8.29557C22.2967 8.12591 22.2318 7.95759 22.1627 7.79077C21.7089 6.69524 21.0816 5.68188 20.3065 4.789ZM16.4191 7.58115C16.7122 7.28811 17.1909 7.28584 17.4509 7.60855C17.8427 8.09477 18.1682 8.63197 18.4182 9.20618C18.4348 9.24446 18.4512 9.28291 18.4672 9.32151C18.8189 10.1708 19 11.0811 19 12.0003C19 12.9196 18.8189 13.8298 18.4672 14.6791C18.2113 15.2968 17.8688 15.8734 17.4509 16.3921C17.1909 16.7148 16.7122 16.7125 16.4191 16.4195C16.1261 16.1264 16.1309 15.654 16.3814 15.3238C16.6473 14.9732 16.8706 14.5914 17.0462 14.1862C17.0579 14.1591 17.0694 14.132 17.0806 14.1048C17.357 13.4376 17.4992 12.7225 17.4992 12.0003C17.4992 11.2782 17.357 10.5631 17.0806 9.89583C16.9002 9.46032 16.665 9.05079 16.3814 8.67686C16.1309 8.34668 16.1261 7.8742 16.4191 7.58115Z" fill="white"/>
</svg>
