<svg width="24" height="24" viewBox="0 0 24 24" fill="none" xmlns="http://www.w3.org/2000/svg">
<path d="M19.6155 6.26923H16.1539V5.57692C16.1539 5.02609 15.9351 4.49782 15.5456 4.10832C15.1561 3.71882 14.6278 3.5 14.077 3.5H9.92315C9.37232 3.5 8.84404 3.71882 8.45455 4.10832C8.06505 4.49782 7.84623 5.02609 7.84623 5.57692V6.26923H4.38469C4.20108 6.26923 4.02499 6.34217 3.89516 6.472C3.76532 6.60184 3.69238 6.77793 3.69238 6.96154C3.69238 7.14515 3.76532 7.32124 3.89516 7.45107C4.02499 7.58091 4.20108 7.65385 4.38469 7.65385H5.077V19.1154C5.077 19.4826 5.22288 19.8348 5.48254 20.0945C5.74221 20.3541 6.09439 20.5 6.46161 20.5H17.5385C17.9058 20.5 18.2579 20.3541 18.5176 20.0945C18.7773 19.8348 18.9232 19.4826 18.9232 19.1154V7.65385H19.6155C19.7991 7.65385 19.9752 7.58091 20.105 7.45107C20.2348 7.32124 20.3078 7.14515 20.3078 6.96154C20.3078 6.77793 20.2348 6.60184 20.105 6.472C19.9752 6.34217 19.7991 6.26923 19.6155 6.26923ZM9.23084 5.57692C9.23084 5.39331 9.30378 5.21722 9.43362 5.08739C9.56345 4.95755 9.73954 4.88462 9.92315 4.88462H14.077C14.2606 4.88462 14.4367 4.95755 14.5665 5.08739C14.6964 5.21722 14.7693 5.39331 14.7693 5.57692V6.26923H9.23084V5.57692ZM17.5385 19.1154H6.46161V7.65385H17.5385V19.1154ZM10.6155 11.1154V15.6538C10.6155 15.8375 10.5425 16.0135 10.4127 16.1434C10.2829 16.2732 10.1068 16.3462 9.92315 16.3462C9.73954 16.3462 9.56345 16.2732 9.43362 16.1434C9.30378 16.0135 9.23084 15.8375 9.23084 15.6538V11.1154C9.23084 10.9318 9.30378 10.7557 9.43362 10.6258C9.56345 10.496 9.73954 10.4231 9.92315 10.4231C10.1068 10.4231 10.2829 10.496 10.4127 10.6258C10.5425 10.7557 10.6155 10.9318 10.6155 11.1154ZM14.7693 11.1154V15.6538C14.7693 15.8375 14.6964 16.0135 14.5665 16.1434C14.4367 16.2732 14.2606 16.3462 14.077 16.3462C13.8934 16.3462 13.7173 16.2732 13.5875 16.1434C13.4576 16.0135 13.3847 15.8375 13.3847 15.6538V11.1154C13.3847 10.9318 13.4576 10.7557 13.5875 10.6258C13.7173 10.496 13.8934 10.4231 14.077 10.4231C14.2606 10.4231 14.4367 10.496 14.5665 10.6258C14.6964 10.7557 14.7693 10.9318 14.7693 11.1154Z" fill="white"/>
</svg>
