<svg width="24" height="24" viewBox="0 0 24 24" fill="none" xmlns="http://www.w3.org/2000/svg">
<path d="M5.24999 20C4.83578 20 4.5 19.6642 4.5 19.25C4.5 18.8358 4.83578 18.5 5.24999 18.5H18.75C19.1642 18.5 19.5 18.8358 19.5 19.25C19.5 19.6642 19.1642 20 18.75 20H5.24999Z" fill="white"/>
<path fill-rule="evenodd" clip-rule="evenodd" d="M11.25 6.45711V15.8364C11.25 16.2507 11.5858 16.5864 12 16.5864C12.4142 16.5864 12.75 16.2507 12.75 15.8364V6.45711L15.9393 9.64645C16.2322 9.93934 16.7071 9.93934 17 9.64645C17.2929 9.35355 17.2929 8.87868 17 8.58579L12.7071 4.29289C12.3166 3.90237 11.6834 3.90237 11.2929 4.29289L7 8.58579C6.7071 8.87868 6.7071 9.35355 7 9.64645C7.29289 9.93934 7.76776 9.93934 8.06066 9.64645L11.25 6.45711Z" fill="white"/>
</svg>
