<svg width="24" height="24" viewBox="0 0 24 24" fill="none" xmlns="http://www.w3.org/2000/svg">
<path fill-rule="evenodd" clip-rule="evenodd" d="M14.1234 9.87662V5.59091H5.59091V14.1234H9.87662V18.4091H18.4091V9.87662H14.1234ZM18.4286 8.78571C18.7127 8.78571 18.9853 8.8986 19.1862 9.09953C19.3871 9.30046 19.5 9.57298 19.5 9.85714V18.4286C19.5 18.7127 19.3871 18.9853 19.1862 19.1862C18.9853 19.3871 18.7127 19.5 18.4286 19.5H9.85714C9.57298 19.5 9.30046 19.3871 9.09953 19.1862C8.8986 18.9853 8.78571 18.7127 8.78571 18.4286V15.2143H5.57143C5.28727 15.2143 5.01475 15.1014 4.81381 14.9005C4.61288 14.6995 4.5 14.427 4.5 14.1429V5.57143C4.5 5.28727 4.61288 5.01475 4.81381 4.81381C5.01475 4.61288 5.28727 4.5 5.57143 4.5H14.1429C14.427 4.5 14.6995 4.61288 14.9005 4.81381C15.1014 5.01475 15.2143 5.28727 15.2143 5.57143V8.78571H18.4286Z" fill="white"/>
</svg>
