<svg width="24" height="24" viewBox="0 0 24 24" fill="none" xmlns="http://www.w3.org/2000/svg">
<path fill-rule="evenodd" clip-rule="evenodd" d="M3 4C3 3.44772 3.44772 3 4 3H20C20.5523 3 21 3.44772 21 4V20C21 20.5523 20.5523 21 20 21H4C3.44772 21 3 20.5523 3 20V4ZM19.5 4.5V19.5H4.5V4.5H19.5Z" fill="white"/>
<path fill-rule="evenodd" clip-rule="evenodd" d="M8.47046 7.375C8.81564 7.375 9.09546 7.65482 9.09546 8V8.75033C9.48519 8.45182 9.9247 8.21889 10.3971 8.06401C11.2892 7.77151 12.2515 7.77271 13.1429 8.06745C14.0342 8.36219 14.8076 8.93492 15.3495 9.70158C15.8914 10.4682 16.1732 11.3884 16.1535 12.327C16.1339 13.2656 15.8139 14.1732 15.2405 14.9166C14.667 15.6599 13.8704 16.1998 12.9675 16.457C12.0646 16.7142 11.103 16.6752 10.2239 16.3457C9.34484 16.0162 8.59456 15.4135 8.08324 14.6261C7.89524 14.3366 7.97751 13.9495 8.267 13.7615C8.55649 13.5735 8.94357 13.6558 9.13157 13.9453C9.49729 14.5085 10.0339 14.9395 10.6627 15.1752C11.2914 15.4109 11.9792 15.4388 12.625 15.2549C13.2708 15.0709 13.8406 14.6847 14.2507 14.153C14.6609 13.6214 14.8898 12.9722 14.9038 12.3009C14.9179 11.6296 14.7163 10.9714 14.3287 10.4231C13.9412 9.87471 13.388 9.46506 12.7505 9.25425C12.1129 9.04344 11.4246 9.04258 10.7865 9.25179C10.4565 9.36001 10.1488 9.5215 9.87492 9.72797H10.8234C11.1686 9.72797 11.4484 10.0078 11.4484 10.353C11.4484 10.6981 11.1686 10.978 10.8234 10.978H8.47046C8.12528 10.978 7.84546 10.6981 7.84546 10.353V8C7.84546 7.65482 8.12528 7.375 8.47046 7.375Z" fill="white"/>
</svg>
