<svg width="24" height="24" viewBox="0 0 24 24" fill="none" xmlns="http://www.w3.org/2000/svg">
<path d="M15.7731 12.973L14.65 11.8499C14.8 11.0217 14.5638 10.2772 13.9414 9.61627C13.3189 8.95537 12.5551 8.69992 11.65 8.84992L10.527 7.72687C10.7526 7.62559 10.984 7.54963 11.2212 7.499C11.4584 7.44835 11.718 7.42302 12 7.42302C13.1346 7.42302 14.0977 7.81885 14.8894 8.61052C15.6811 9.40219 16.0769 10.3653 16.0769 11.4999C16.0769 11.782 16.0516 12.0448 16.0009 12.2884C15.9503 12.532 15.8743 12.7602 15.7731 12.973ZM18.9538 16.0845L17.85 15.0499C18.4833 14.5666 19.0458 14.0374 19.5375 13.4624C20.0292 12.8874 20.45 12.2333 20.8 11.4999C19.9667 9.81659 18.7708 8.47909 17.2125 7.48742C15.6542 6.49575 13.9167 5.99992 12 5.99992C11.5167 5.99992 11.0417 6.03325 10.575 6.09992C10.1083 6.16659 9.65001 6.26659 9.20001 6.39992L8.03466 5.23457C8.66671 4.98329 9.31222 4.79803 9.97119 4.6788C10.6302 4.55956 11.3064 4.49995 12 4.49995C14.3436 4.49995 16.457 5.1461 18.3404 6.4384C20.0493 7.61102 21.3386 9.10874 22.2083 10.9316C22.3799 11.2911 22.3801 11.7088 22.2076 12.0679C21.8803 12.7493 21.4864 13.3939 21.0259 14.0018C20.4394 14.7762 19.7487 15.4704 18.9538 16.0845ZM20.2874 21.3432C19.9967 21.634 19.5255 21.6349 19.2336 21.3452L15.7154 17.8537C15.2026 18.0435 14.6343 18.1986 14.0106 18.3191C13.3869 18.4396 12.7167 18.4999 12 18.4999C9.65003 18.4999 7.53658 17.8537 5.65966 16.5614C3.95776 15.3896 2.66958 13.8932 1.79515 12.072C1.62147 11.7103 1.62116 11.2893 1.79644 10.9284C2.12168 10.2587 2.51263 9.62516 2.96929 9.0278C3.55391 8.26306 4.1975 7.59993 4.90006 7.0384L2.65337 4.76676C2.36431 4.47448 2.36561 4.0036 2.65629 3.71293C2.9481 3.42112 3.42122 3.42113 3.71303 3.71294L20.2874 20.2874C20.579 20.5789 20.579 21.0516 20.2874 21.3432ZM5.95389 8.0922C5.42569 8.51271 4.91191 9.01817 4.41254 9.60857C3.91317 10.199 3.509 10.8294 3.20001 11.4999C4.03335 13.1833 5.22918 14.5208 6.78751 15.5124C8.34585 16.5041 10.0833 16.9999 12 16.9999C12.4551 16.9999 12.9084 16.9615 13.3597 16.8845C13.8109 16.8076 14.1936 16.7281 14.5077 16.6461L13.2423 15.3499C13.0718 15.4191 12.8744 15.4742 12.65 15.5153C12.4257 15.5563 12.209 15.5768 12 15.5768C10.8654 15.5768 9.90228 15.181 9.11061 14.3893C8.31895 13.5977 7.92311 12.6345 7.92311 11.4999C7.92311 11.2974 7.94363 11.0855 7.98466 10.8643C8.0257 10.6432 8.08082 10.4409 8.15004 10.2576L5.95389 8.0922Z" fill="white"/>
</svg>
