<svg width="24" height="24" viewBox="0 0 24 24" fill="none" xmlns="http://www.w3.org/2000/svg">
<path fill-rule="evenodd" clip-rule="evenodd" d="M6.375 10.6875C4.97703 10.6875 3.84375 11.8208 3.84375 13.2188C3.84375 14.6167 4.97703 15.75 6.375 15.75C7.77297 15.75 8.90625 14.6167 8.90625 13.2188C8.90625 11.8208 7.77297 10.6875 6.375 10.6875ZM2.15625 13.2188C2.15625 10.8888 4.04505 9 6.375 9C8.70495 9 10.5938 10.8888 10.5938 13.2188C10.5938 15.5487 8.70495 17.4375 6.375 17.4375C4.04505 17.4375 2.15625 15.5487 2.15625 13.2188Z" fill="white"/>
<path fill-rule="evenodd" clip-rule="evenodd" d="M9.75 9C10.216 9 10.5938 9.37776 10.5938 9.84375V16.5938C10.5938 17.0597 10.216 17.4375 9.75 17.4375C9.28401 17.4375 8.90625 17.0597 8.90625 16.5938V9.84375C8.90625 9.37776 9.28401 9 9.75 9Z" fill="white"/>
<path fill-rule="evenodd" clip-rule="evenodd" d="M17.625 10.6875C16.227 10.6875 15.0938 11.8208 15.0938 13.2188C15.0938 14.6167 16.227 15.75 17.625 15.75C19.023 15.75 20.1562 14.6167 20.1562 13.2188C20.1562 11.8208 19.023 10.6875 17.625 10.6875ZM13.4062 13.2188C13.4062 10.8888 15.295 9 17.625 9C19.955 9 21.8438 10.8888 21.8438 13.2188C21.8438 15.5487 19.955 17.4375 17.625 17.4375C15.295 17.4375 13.4062 15.5487 13.4062 13.2188Z" fill="white"/>
<path fill-rule="evenodd" clip-rule="evenodd" d="M14.25 6.75C14.716 6.75 15.0938 7.12776 15.0938 7.59375V16.5938C15.0938 17.0597 14.716 17.4375 14.25 17.4375C13.784 17.4375 13.4062 17.0597 13.4062 16.5938V7.59375C13.4062 7.12776 13.784 6.75 14.25 6.75Z" fill="white"/>
</svg>
