<svg width="24" height="24" viewBox="0 0 24 24" fill="none" xmlns="http://www.w3.org/2000/svg">
<path d="M3.60019 19.9999C2.8298 19.9999 2.34874 19.1654 2.73482 18.4988L11.1347 3.99427C11.5199 3.32913 12.4802 3.32913 12.8654 3.99427L21.2652 18.4988C21.6513 19.1654 21.1703 19.9999 20.3999 19.9999H3.60019ZM4.45003 18.4999H19.55L12 5.49993L4.45003 18.4999ZM12 17.3076C12.2289 17.3076 12.4207 17.2302 12.5755 17.0754C12.7303 16.9206 12.8077 16.7288 12.8077 16.4999C12.8077 16.2711 12.7303 16.0793 12.5755 15.9245C12.4207 15.7697 12.2289 15.6923 12 15.6923C11.7712 15.6923 11.5794 15.7697 11.4246 15.9245C11.2698 16.0793 11.1924 16.2711 11.1924 16.4999C11.1924 16.7288 11.2698 16.9206 11.4246 17.0754C11.5794 17.2302 11.7712 17.3076 12 17.3076ZM11.2501 13.9423C11.2501 14.3565 11.5858 14.6923 12 14.6923C12.4142 14.6923 12.75 14.3565 12.75 13.9423V10.4422C12.75 10.028 12.4142 9.69225 12 9.69225C11.5858 9.69225 11.2501 10.028 11.2501 10.4422V13.9423Z" fill="white"/>
</svg>
