<svg width="198" height="36" viewBox="0 0 198 36" fill="none" xmlns="http://www.w3.org/2000/svg">
<path d="M10.8325 27.0905L10.8108 27.0689L10.6863 27.2097C10.5346 27.3776 9.78725 28.0275 8.44953 29.0511C7.58841 29.7064 6.25611 29.8797 5.35166 29.4572C4.62593 29.1215 4.22516 28.4553 4.18725 27.54V9.17485C4.18725 7.94003 4.80466 6.94351 5.8445 6.51024C7.06849 6.01199 8.51452 6.43442 9.72768 7.64216C11.2441 9.1586 13.4267 11.26 15.918 13.6538L16.0859 13.8162C18.0789 15.7335 19.9582 17.5369 21.1443 18.723C21.4151 18.9884 21.9404 18.9884 22.2112 18.723C22.352 18.5822 22.4333 18.3926 22.4333 18.1923C22.4333 17.9919 22.3575 17.8023 22.2112 17.6615C20.9927 16.4429 19.0321 14.5582 16.9633 12.5706C14.5803 10.2851 12.3219 8.10792 10.7946 6.58065C9.15359 4.94506 7.04141 4.38723 5.27042 5.11837C3.67274 5.7791 2.68164 7.33346 2.68164 9.17485V27.5725C2.74663 29.0836 3.46694 30.2425 4.71259 30.822C5.23793 31.0658 5.84992 31.1957 6.48899 31.1957C7.52884 31.1957 8.57951 30.8491 9.36481 30.248C11.1196 28.9102 11.6936 28.3362 11.7911 28.2333C12.0673 27.9354 12.0511 27.4642 11.7532 27.1772C11.5041 26.9443 11.1196 26.9064 10.8325 27.0905Z" fill="black"/>
<path d="M29.3219 8.42629C29.2569 6.90985 28.5366 5.75627 27.291 5.17677C25.8666 4.51062 23.9548 4.74351 22.6388 5.75086C20.9219 7.06149 20.3424 7.62474 20.207 7.76556C19.9308 8.06343 19.9471 8.53461 20.2449 8.82165C20.4941 9.05995 20.8786 9.09244 21.1656 8.9083L21.1873 8.92997L21.3119 8.78915C21.5014 8.57794 22.3896 7.83596 23.5486 6.94776C24.4097 6.29244 25.7366 6.11372 26.6465 6.54157C27.3668 6.87735 27.773 7.54351 27.8109 8.45879V26.824C27.8109 28.0642 27.1935 29.0607 26.1537 29.4886C24.9351 29.9922 23.489 29.5698 22.2705 28.3512C20.6566 26.7373 18.1869 24.3652 16.1993 22.4588L16.1018 22.3667C13.9246 20.2762 12.0453 18.4673 10.8538 17.2758C10.5668 16.9942 10.0685 16.9942 9.78692 17.2758C9.49446 17.5683 9.49446 18.0449 9.78692 18.3427C10.9892 19.5451 12.8036 21.2944 15.0566 23.4553L15.3328 23.7207C17.25 25.5621 19.6384 27.8584 21.2036 29.4236C22.3517 30.5717 23.7382 31.2 25.1138 31.2C25.6771 31.2 26.2186 31.0917 26.7277 30.8859C28.3254 30.2251 29.3165 28.6708 29.3165 26.8294V8.42629H29.3219Z" fill="black"/>
<path fill-rule="evenodd" clip-rule="evenodd" d="M57.4562 7.79334C57.8331 7.79334 58.1716 7.88787 58.4644 8.08234C58.8048 8.29626 58.9658 8.63961 58.9658 9.07078V25.5041C58.9658 25.9352 58.8048 26.2786 58.4644 26.4925C58.1716 26.687 57.8331 26.7815 57.4562 26.7815C57.0783 26.7815 56.739 26.6865 56.4457 26.491C56.1215 26.2748 55.9724 25.931 55.9724 25.5041V9.07078C55.9724 8.6439 56.1215 8.30004 56.4457 8.08389C56.739 7.88838 57.0783 7.79334 57.4562 7.79334Z" fill="black"/>
<path fill-rule="evenodd" clip-rule="evenodd" d="M54.1225 25.9996C54.3074 25.649 54.3098 25.2555 54.1581 24.8385L48.0426 9.07233C47.8637 8.60714 47.6196 8.26067 47.2926 8.07398C47.0007 7.88117 46.6634 7.78743 46.2881 7.78743C45.9118 7.78743 45.5738 7.88165 45.2814 8.07547C44.972 8.26285 44.7374 8.60948 44.5592 9.07265L38.4195 24.9121L38.4181 24.9159C38.269 25.3258 38.257 25.7053 38.4291 26.028L38.4319 26.0329C38.5975 26.3226 38.8715 26.5284 39.2298 26.6605L39.2328 26.6615C39.6042 26.7915 39.9605 26.8237 40.2958 26.7448L40.3033 26.7427C40.6916 26.6348 40.953 26.3337 41.1045 25.8994L42.8109 21.3322H49.6872L51.3429 25.8226C51.511 26.289 51.7892 26.6103 52.198 26.7178L52.2075 26.7198C52.5683 26.7958 52.9367 26.776 53.3093 26.6642L53.3119 26.6634C53.6818 26.5466 53.9586 26.3262 54.1225 25.9996ZM47.2155 14.5755L48.77 18.7774H43.7303L45.3087 14.5764L45.3092 14.5753C45.5503 13.9208 45.7571 13.3434 45.9297 12.843L45.9303 12.8411C46.0406 12.5101 46.1509 12.1686 46.2612 11.8167C46.3602 12.1371 46.4624 12.4609 46.5678 12.7877L46.5697 12.793C46.7592 13.3271 46.9745 13.9214 47.2155 14.5755Z" fill="black"/>
<path d="M86.8151 7.39862C87.1058 7.20478 87.4563 7.08743 87.828 7.08743C88.1935 7.08743 88.5484 7.18388 88.8474 7.40313C89.159 7.63171 89.3241 7.94976 89.3241 8.38993V9.27H91.6475C92.0065 9.27 92.3146 9.39241 92.5139 9.68025C92.6968 9.94446 92.774 10.2455 92.774 10.5901C92.774 10.9342 92.6969 11.2196 92.5119 11.4675C92.3137 11.752 92.0249 11.875 91.6475 11.875H83.6917C83.3327 11.875 83.0246 11.7526 82.8253 11.4648C82.6435 11.2022 82.5652 10.9019 82.5652 10.5901C82.5652 10.2829 82.6414 9.94594 82.8253 9.68025C83.0236 9.39377 83.3131 9.27 83.6917 9.27H86.3319V8.38993C86.3319 7.95499 86.4935 7.613 86.8151 7.39862Z" fill="black"/>
<path d="M97.6024 7.453C97.8849 7.25203 98.204 7.17544 98.5472 7.17544C98.8965 7.17544 99.229 7.27245 99.5049 7.44981C99.8122 7.64739 99.9729 7.99172 99.9729 8.40754V18.9684C99.9729 19.3826 99.8311 19.7075 99.5097 19.9229C99.2257 20.1249 98.8883 20.2005 98.5472 20.2005C98.1959 20.2005 97.8814 20.1024 97.6072 19.9261L97.5999 19.9214C97.3034 19.7096 97.1391 19.3899 97.1391 18.9684V14.744H95.8014V18.0883C95.8014 18.4832 95.6603 18.8117 95.3348 19.01C95.0531 19.2092 94.7352 19.2852 94.3933 19.2852C94.042 19.2852 93.7275 19.1871 93.4533 19.0108L93.446 19.0062C93.1538 18.7974 92.9852 18.4977 92.9852 18.0883V8.49554C92.9852 8.10068 93.1263 7.77213 93.4518 7.57383C93.7335 7.37464 94.0514 7.29865 94.3933 7.29865C94.7446 7.29865 95.0592 7.39675 95.3334 7.57302L95.3406 7.57768C95.6328 7.78642 95.8014 8.08612 95.8014 8.49554V12.1566H97.1391V8.40754C97.1391 7.9933 97.281 7.66838 97.6024 7.453Z" fill="black"/>
<path fill-rule="evenodd" clip-rule="evenodd" d="M84.7215 13.2901C85.4841 12.639 86.5326 12.315 87.8456 12.315C89.1586 12.315 90.2071 12.639 90.9697 13.2901C91.7348 13.9432 92.1227 14.8392 92.1227 15.9409C92.1227 17.0426 91.7348 17.9387 90.9697 18.5918C90.2071 19.2428 89.1586 19.5668 87.8456 19.5668C86.5326 19.5668 85.4841 19.2428 84.7215 18.5918C83.9564 17.9387 83.5685 17.0427 83.5685 15.9409C83.5685 14.8392 83.9564 13.9432 84.7215 13.2901ZM87.8456 14.6736C87.3272 14.6736 86.9471 14.7902 86.6522 15.023L86.6476 15.0266C86.3643 15.2353 86.2263 15.5311 86.2263 15.9233C86.2263 16.3107 86.361 16.5929 86.6499 16.8218C86.9498 17.042 87.3337 17.173 87.8456 17.173C88.3471 17.173 88.7446 17.0561 89.039 16.8237L89.0436 16.82C89.3269 16.6113 89.4649 16.3155 89.4649 15.9233C89.4649 15.536 89.3302 15.2538 89.0413 15.0248C88.7414 14.8046 88.3575 14.6736 87.8456 14.6736Z" fill="black"/>
<path fill-rule="evenodd" clip-rule="evenodd" d="M86.4727 23.6503C86.4756 24.3065 86.6415 24.898 86.959 25.3836C87.2769 25.8698 87.741 26.2759 88.3263 26.5868C88.9088 26.8962 89.6136 27.1302 90.438 27.2736C91.2596 27.4165 92.1852 27.4874 93.1964 27.4874C94.2076 27.4874 95.1332 27.4165 95.9548 27.2736C96.7793 27.1302 97.4841 26.8962 98.0666 26.5868C98.6493 26.2772 99.1158 25.8887 99.4354 25.381C99.7534 24.8761 99.9201 24.2976 99.9201 23.6327C99.9201 22.9714 99.7683 22.3879 99.4577 21.8914C99.1473 21.3952 98.6848 20.9965 98.0803 20.6943C96.8846 20.0964 95.2522 19.7956 93.1964 19.7956C92.1852 19.7956 91.2596 19.8666 90.438 20.0094C89.6136 20.1528 88.9088 20.3868 88.3263 20.6963C87.7435 21.0059 87.277 21.3944 86.9574 21.902C86.6423 22.4025 86.4757 22.9752 86.4727 23.6327V23.6503ZM90.2948 22.684C89.7297 22.9504 89.5001 23.2714 89.5001 23.6503C89.5001 24.0321 89.7332 24.3689 90.2928 24.6158L90.2968 24.6175C90.8565 24.8809 91.8067 25.0056 93.1964 25.0056C94.5807 25.0056 95.5347 24.8645 96.0981 24.6166C96.6632 24.3502 96.8927 24.0292 96.8927 23.6503C96.8927 23.2686 96.6597 22.9318 96.1 22.6849L96.0961 22.6831C95.5364 22.4197 94.5861 22.295 93.1964 22.295C91.8121 22.295 90.8582 22.4361 90.2948 22.684Z" fill="black"/>
<path d="M77.162 12.7456C77.6167 12.9785 78.0569 13.1967 78.4885 13.4064C79.1034 13.7051 79.7009 13.9863 80.2641 14.2502C80.4368 14.3315 80.5773 14.4425 80.6791 14.5883C80.7806 14.7337 80.8371 14.9041 80.8572 15.0947C80.895 15.4351 80.8588 15.7715 80.6978 16.0745C80.54 16.389 80.2993 16.6312 79.9589 16.7718C79.6315 16.9145 79.2804 16.9134 78.9366 16.7521C78.231 16.4346 77.561 16.1172 76.9442 15.8176C76.3258 15.5173 75.7073 15.1992 75.1239 14.881C74.4519 14.5096 73.9402 14.165 73.6404 13.8652L73.6366 13.8614C73.4788 13.6938 73.3462 13.5296 73.2482 13.3668C73.144 13.5516 72.9996 13.734 72.8156 13.918C72.4991 14.2346 72.0069 14.5786 71.33 14.9349C70.7324 15.2513 70.1306 15.5699 69.5118 15.8704C68.8951 16.17 68.2251 16.4874 67.5195 16.8049C67.1748 16.9667 66.8369 16.9685 66.5048 16.8024C66.1933 16.6467 65.9554 16.429 65.7789 16.1152L65.7746 16.1077C65.6179 15.7943 65.5589 15.458 65.6176 15.0862C65.6473 14.8982 65.7083 14.73 65.8112 14.5865C65.9146 14.4423 66.0539 14.3318 66.2269 14.2503L66.229 14.2494C66.8085 13.986 67.4049 13.7053 68.0009 13.4073L68.0027 13.4064C68.6173 13.1079 69.2491 12.792 69.9157 12.4412C71.1219 11.7954 71.7055 10.9153 71.7055 9.81565V9.00599C71.7055 8.55858 71.8636 8.19622 72.1887 7.97946L72.193 7.97659C72.4998 7.78487 72.8486 7.66828 73.2544 7.66828C73.653 7.66828 74.0048 7.76363 74.3191 7.97874C74.6676 8.19833 74.8034 8.56642 74.8034 9.00599V9.81565C74.8034 10.9155 75.3872 11.7957 76.5937 12.4415L77.162 12.7456Z" fill="black"/>
<path d="M64.397 18.5866C64.5954 18.3001 64.8848 18.1763 65.2634 18.1763H81.2279C81.5868 18.1763 81.8949 18.2987 82.0942 18.5866C82.2771 18.8508 82.3543 19.1518 82.3543 19.4964C82.3543 19.841 82.2771 20.1421 82.0942 20.4063C81.8959 20.6927 81.6064 20.8165 81.2279 20.8165H74.7681V26.1497C74.7681 26.5812 74.6089 26.9426 74.2849 27.1586L74.2806 27.1615C73.9765 27.3516 73.6453 27.4698 73.2544 27.4698C72.8746 27.4698 72.5213 27.375 72.2227 27.1579C71.8769 26.9388 71.7407 26.5725 71.7407 26.1497V20.8165H65.2634C64.9044 20.8165 64.5963 20.6941 64.397 20.4063C64.2141 20.1421 64.1369 19.841 64.1369 19.4964C64.1369 19.1518 64.2141 18.8508 64.397 18.5866Z" fill="black"/>
<path d="M116.831 7.17545C116.456 7.17545 116.125 7.29432 115.822 7.48382L115.818 7.48663C115.494 7.70263 115.335 8.06406 115.335 8.49555V10.1853H113.944C113.576 10.1853 113.288 10.3317 113.111 10.5979L113.106 10.607C112.964 10.849 112.888 11.1446 112.888 11.4878C112.888 11.8206 112.943 12.1234 113.109 12.3748C113.291 12.667 113.585 12.7903 113.944 12.7903H115.335V13.4591H113.944C113.576 13.4591 113.288 13.6056 113.111 13.8718L113.106 13.8809C112.964 14.1229 112.888 14.4184 112.888 14.7616C112.888 15.0945 112.943 15.3973 113.109 15.6487C113.291 15.9409 113.585 16.0641 113.944 16.0641H115.335V18.2819C115.335 18.7047 115.471 19.071 115.817 19.2901C116.114 19.5067 116.467 19.602 116.831 19.602C117.205 19.602 117.536 19.4832 117.839 19.2937L117.844 19.2908C118.168 19.0748 118.327 18.7134 118.327 18.2819V8.49555C118.327 8.07274 118.191 7.70643 117.845 7.48735C117.547 7.27078 117.194 7.17545 116.831 7.17545Z" fill="black"/>
<path fill-rule="evenodd" clip-rule="evenodd" d="M103.26 8.28433L112.272 8.28443C112.623 8.28839 112.925 8.41145 113.121 8.69458C113.301 8.9554 113.381 9.23745 113.381 9.55163C113.381 9.86581 113.301 10.1479 113.121 10.4087C112.922 10.6952 112.633 10.8189 112.254 10.8189H111.55V15.8458C111.591 15.843 111.632 15.8395 111.674 15.836L111.684 15.8351C111.782 15.8267 111.888 15.8177 111.99 15.8177C112.154 15.8177 112.318 15.7902 112.514 15.7573L112.56 15.7497L112.569 15.7484C112.93 15.7084 113.25 15.8074 113.47 16.0277C113.68 16.2375 113.798 16.5234 113.837 16.8344L113.837 16.8368C113.875 17.176 113.84 17.4967 113.677 17.7842C113.523 18.0883 113.256 18.2578 112.89 18.2984L112.885 18.2989C112.743 18.3107 112.594 18.3247 112.436 18.3394C112.132 18.3679 111.799 18.3991 111.438 18.4224C110.891 18.4577 110.237 18.493 109.477 18.5107C108.72 18.5283 107.822 18.5459 106.783 18.5635L106.78 18.5635C106.301 18.5635 105.785 18.5673 105.228 18.5713L105.09 18.5723C104.48 18.5767 103.824 18.5811 103.119 18.5811C102.76 18.5811 102.452 18.4587 102.253 18.1709C102.072 17.9101 101.993 17.628 101.993 17.3138C101.993 16.9997 102.072 16.7176 102.253 16.4568C102.451 16.1703 102.741 16.0465 103.119 16.0465H104.07V10.8189H103.26C102.901 10.8189 102.593 10.6965 102.394 10.4087C102.213 10.1479 102.134 9.86581 102.134 9.55163C102.134 9.23745 102.213 8.95539 102.394 8.69458C102.592 8.4081 102.881 8.28433 103.26 8.28433ZM107.819 16.0465H106.992L106.992 10.8541H108.664V16.0199C108.373 16.0343 108.095 16.0465 107.819 16.0465Z" fill="black"/>
<path fill-rule="evenodd" clip-rule="evenodd" d="M111.85 19.3556C109.844 19.3556 108.244 19.6923 107.082 20.346C105.881 21.0115 105.284 22.0569 105.284 23.4215C105.284 24.7876 105.899 25.8317 107.081 26.4965C108.262 27.1687 109.845 27.4874 111.85 27.4874C113.855 27.4874 115.455 27.1508 116.617 26.4971C117.818 25.8316 118.415 24.7862 118.415 23.4215C118.415 22.0539 117.797 21.0283 116.619 20.3467C115.437 19.6744 113.854 19.3556 111.85 19.3556ZM108.329 23.4215C108.329 22.9728 108.561 22.6024 109.083 22.3087C109.606 22.0314 110.519 21.8726 111.85 21.8726C113.186 21.8726 114.095 22.0152 114.615 22.3076C115.137 22.6015 115.37 22.9722 115.37 23.4215C115.37 23.8703 115.138 24.2406 114.617 24.5344C114.093 24.8116 113.18 24.9704 111.85 24.9704C110.513 24.9704 109.604 24.8278 109.084 24.5354C108.562 24.2415 108.329 23.8708 108.329 23.4215Z" fill="black"/>
<path d="M137.374 13.4063V13.3887H137.55C137.924 13.3887 138.233 13.5098 138.434 13.799C138.617 14.0639 138.694 14.3653 138.694 14.7264C138.694 15.0875 138.617 15.3889 138.434 15.6539C138.237 15.9372 137.933 16.0817 137.55 16.0817H135.737V24.6536C135.737 25.0851 135.578 25.4465 135.254 25.6625C134.962 25.8569 134.611 25.9737 134.223 25.9737C133.841 25.9737 133.486 25.8778 133.186 25.658C132.872 25.4276 132.709 25.0904 132.709 24.6536V8.49555C132.709 8.06406 132.869 7.70263 133.193 7.48663L133.197 7.48376C133.501 7.29366 133.832 7.17545 134.223 7.17545C134.603 7.17545 134.956 7.27027 135.255 7.48735C135.601 7.70643 135.737 8.07274 135.737 8.49555V13.4063H137.374Z" fill="black"/>
<path d="M122.008 11.259V11.2766H121.832C121.473 11.2766 121.165 11.1542 120.965 10.8663C120.782 10.6021 120.705 10.3011 120.705 9.95646C120.705 9.61408 120.781 9.29469 120.965 9.02901C121.164 8.74252 121.453 8.61876 121.832 8.61876H128.151C128.827 8.61876 129.364 8.74057 129.681 9.0554C130.001 9.35564 130.122 9.87962 130.122 10.5549V12.8607C130.122 13.752 130.033 14.5408 129.87 15.2081L129.869 15.2124C129.686 15.8913 129.338 16.5473 128.796 17.1977C128.255 17.847 127.503 18.5082 126.527 19.2C125.556 19.8889 124.285 20.7358 122.681 21.7233L122.678 21.7251C122.337 21.9256 121.981 21.9701 121.609 21.8254C121.27 21.6936 120.989 21.4983 120.804 21.1947C120.604 20.9108 120.529 20.5742 120.529 20.2181C120.529 19.8156 120.725 19.502 121.061 19.2646L121.071 19.2579C122.021 18.6769 122.847 18.1682 123.513 17.73C124.178 17.2923 124.738 16.89 125.192 16.5407C125.644 16.1926 125.987 15.8835 126.241 15.5957C126.494 15.3083 126.679 15.023 126.812 14.7395C126.942 14.4631 127.009 14.1666 127.043 13.8621C127.077 13.5537 127.094 13.1733 127.094 12.7551V11.5758C127.094 11.4445 127.062 11.3727 127.023 11.3333C126.986 11.2948 126.915 11.259 126.778 11.259H122.008Z" fill="black"/>
<path d="M156.256 7.32506C155.865 7.32506 155.534 7.44335 155.229 7.63344L155.225 7.63625C154.901 7.85224 154.742 8.21367 154.742 8.64517V24.8208C154.742 25.2436 154.878 25.6099 155.224 25.829C155.521 26.0456 155.857 26.1409 156.256 26.1409C156.659 26.1409 157.027 26.0257 157.321 25.8298C157.645 25.6138 157.804 25.2523 157.804 24.8208V8.64517C157.804 8.22143 157.668 7.85444 157.32 7.63553C157.005 7.41995 156.636 7.32506 156.256 7.32506Z" fill="black"/>
<path d="M149.233 12.4119H149.215V9.63085C149.215 9.19128 149.079 8.82318 148.731 8.6036C148.416 8.38849 148.065 8.29314 147.666 8.29314C147.263 8.29314 146.894 8.40836 146.6 8.60432C146.275 8.82108 146.117 9.18344 146.117 9.63085V12.5879C146.117 13.0071 146.099 13.3803 146.032 13.715L146.031 13.7235C145.981 14.0593 145.879 14.3984 145.759 14.7067C145.64 15.013 145.488 15.3166 145.287 15.6018C145.079 15.8961 144.838 16.2061 144.546 16.5153L144.544 16.5174C143.791 17.3407 142.985 18.1467 142.108 18.9531L142.103 18.9583C141.822 19.239 141.699 19.5659 141.699 19.9276L141.699 19.9374C141.719 20.2904 141.838 20.6096 142.076 20.8871L142.08 20.8914C142.299 21.1302 142.593 21.3047 142.957 21.4004C143.349 21.5036 143.711 21.418 144.019 21.13L144.021 21.1284C144.173 20.9825 144.325 20.8398 144.473 20.7003C144.731 20.4573 144.979 20.2238 145.203 19.9993L145.205 19.9978C145.555 19.6472 145.909 19.2929 146.247 18.9205C146.426 18.7293 146.588 18.5493 146.73 18.3907C146.81 18.3017 146.883 18.2193 146.951 18.1456C147.147 17.9313 147.313 17.7302 147.425 17.5611C147.531 17.4029 147.623 17.2566 147.697 17.1078C147.763 17.2358 147.845 17.3712 147.945 17.5122C148.164 17.8228 148.559 18.2712 149.122 18.869L149.123 18.8705C149.457 19.2219 149.793 19.5753 150.129 19.9113L150.132 19.9142C150.464 20.2463 150.767 20.549 151.053 20.7994L151.054 20.8005C151.188 20.9154 151.353 21.0221 151.531 21.0665C151.685 21.1051 151.866 21.1265 152.034 21.1057C152.22 21.0849 152.381 21.023 152.532 20.9475C152.686 20.8708 152.808 20.7901 152.93 20.6682C153.17 20.4283 153.326 20.1116 153.384 19.7439C153.447 19.346 153.316 19.0073 153.014 18.7251L153.007 18.7193C152.68 18.4435 152.333 18.0974 151.944 17.7086C151.691 17.4548 151.446 17.195 151.197 16.9305C151.068 16.7932 150.937 16.6546 150.803 16.5149C150.508 16.2024 150.252 15.8944 150.067 15.6077C149.875 15.3117 149.708 15.0255 149.591 14.7096C149.472 14.3869 149.387 14.0629 149.318 13.7192C149.267 13.3758 149.233 12.9988 149.233 12.5879V12.4119Z" fill="black"/>
<path fill-rule="evenodd" clip-rule="evenodd" d="M174.564 18.63C173.848 18.2353 173.168 17.8479 172.525 17.4676L172.523 17.4666C171.895 17.0867 171.281 16.7068 170.682 16.3269L170.68 16.3261C170.017 15.8985 169.505 15.494 169.153 15.1115L169.148 15.1053C168.975 14.901 168.833 14.708 168.727 14.5275C168.611 14.7348 168.451 14.9505 168.253 15.1742C167.915 15.5587 167.409 15.9641 166.746 16.3917L166.744 16.3925C166.145 16.7726 165.524 17.1527 164.88 17.5327C164.251 17.9132 163.578 18.3009 162.862 18.6956L162.858 18.6977C162.503 18.8835 162.136 18.9119 161.772 18.7732C161.421 18.6396 161.146 18.4043 160.948 18.075L160.946 18.0723C160.765 17.7585 160.684 17.406 160.7 17.021C160.718 16.6045 160.907 16.2825 161.265 16.0855C161.89 15.7365 162.515 15.3802 163.141 15.0167C163.766 14.6387 164.413 14.2389 165.082 13.8172C165.805 13.3486 166.309 12.8394 166.609 12.294L166.611 12.2906C166.925 11.7443 167.087 11.081 167.087 10.2925V9.13322C167.087 8.66267 167.245 8.28367 167.592 8.04617L167.596 8.04344C167.923 7.83043 168.298 7.72618 168.713 7.72618C169.127 7.72618 169.496 7.83002 169.811 8.04483C170.172 8.28059 170.339 8.6593 170.339 9.13322V10.2925C170.339 11.0816 170.494 11.7456 170.794 12.2923C171.109 12.8392 171.621 13.3489 172.344 13.8172C173.013 14.2389 173.66 14.6387 174.285 15.0167C174.911 15.3803 175.536 15.7367 176.162 16.0858L176.161 16.0852C176.519 16.2821 176.708 16.6043 176.726 17.021C176.742 17.3922 176.661 17.7309 176.478 18.0307C176.293 18.3505 176.013 18.5765 175.652 18.7081L175.651 18.7086L175.654 18.7075L175.652 18.7081C175.289 18.8462 174.922 18.8176 174.568 18.632L174.564 18.63ZM160.445 24.5392C160.057 24.5392 159.739 24.4003 159.533 24.1008C159.346 23.8291 159.257 23.5105 159.257 23.1541C159.257 22.7852 159.345 22.4587 159.533 22.1854C159.739 21.886 160.057 21.747 160.445 21.747H176.981C177.369 21.747 177.687 21.886 177.893 22.1854C178.081 22.4587 178.169 22.7852 178.169 23.1541C178.169 23.5105 178.08 23.8291 177.893 24.1008C177.687 24.4003 177.369 24.5392 176.981 24.5392H160.445Z" fill="black"/>
<path d="M193.893 7.32506C193.552 7.32506 193.214 7.40067 192.931 7.60262C192.609 7.818 192.467 8.14292 192.467 8.55716V17.9915C192.467 18.4131 192.632 18.7328 192.928 18.9446L192.935 18.9492C193.211 19.1266 193.544 19.2236 193.893 19.2236C194.234 19.2236 194.571 19.148 194.855 18.9461C195.177 18.7307 195.319 18.4057 195.319 17.9915V8.55716C195.319 8.14134 195.158 7.79701 194.851 7.59944C194.575 7.42207 194.242 7.32506 193.893 7.32506Z" fill="black"/>
<path d="M190.056 7.43067C189.715 7.43067 189.377 7.50628 189.093 7.70824C188.772 7.92362 188.63 8.24854 188.63 8.66277V11.7958H187.504C187.158 11.7958 186.865 11.9214 186.685 12.214C186.524 12.4752 186.448 12.7724 186.448 13.1335C186.448 13.4946 186.524 13.7918 186.685 14.053C186.77 14.1921 186.882 14.2999 187.025 14.3712C187.165 14.4417 187.326 14.4712 187.504 14.4712H188.63V17.8859C188.63 18.3075 188.794 18.6272 189.091 18.839L189.098 18.8436C189.374 19.021 189.707 19.118 190.056 19.118C190.399 19.118 190.718 19.0414 191.001 18.8404C191.322 18.625 191.464 18.3001 191.464 17.8859V8.66277C191.464 8.24119 191.3 7.9215 191.003 7.70971L190.996 7.70505C190.722 7.52877 190.407 7.43067 190.056 7.43067Z" fill="black"/>
<path d="M187.659 17.8109L187.661 17.8062C187.524 18.0993 187.254 18.2644 186.899 18.3235L186.897 18.3239C186.431 18.3956 185.685 18.4663 184.663 18.5192C183.635 18.59 182.293 18.6075 180.639 18.6075C179.963 18.6075 179.425 18.4857 179.109 18.1709L179.111 18.173L179.107 18.1688L179.109 18.1709C178.789 17.8706 178.668 17.3467 178.668 16.6714V10.3349C178.668 9.65806 178.79 9.13322 179.111 8.83332C179.424 8.54152 179.936 8.39875 180.639 8.39875H185.99C186.349 8.39875 186.657 8.52115 186.856 8.809C187.038 9.07159 187.116 9.37189 187.116 9.68365C187.116 9.9902 187.041 10.3113 186.854 10.561C186.656 10.8456 186.367 10.9685 185.99 10.9685H181.959C181.828 10.9685 181.756 11.0013 181.717 11.0397C181.678 11.0772 181.642 11.1476 181.642 11.2854V12.183L185.307 12.2528C185.17 12.3893 184.741 12.0782 185.307 12.2528C185.504 12.314 185.672 12.4314 185.788 12.6188C185.942 12.8688 186.043 13.1468 186.043 13.4679C186.043 13.7816 185.963 14.0633 185.783 14.3238C185.604 14.5922 185.297 14.7352 184.934 14.7352H181.625V15.7209C181.625 15.8522 181.658 15.924 181.696 15.9634C181.733 16.0019 181.804 16.0377 181.942 16.0377C182.678 16.0377 183.466 16.0202 184.289 15.9677L184.293 15.9675C185.114 15.9325 185.847 15.8627 186.526 15.7582L186.534 15.757C186.885 15.718 187.214 15.7935 187.44 16.0426C187.645 16.2673 187.763 16.5497 187.802 16.8796C187.839 17.2169 187.805 17.537 187.661 17.8062L187.663 17.8012L187.659 17.8109Z" fill="black"/>
<path fill-rule="evenodd" clip-rule="evenodd" d="M183.702 19.646C182.999 19.646 182.486 19.7888 182.174 20.0806C181.852 20.3805 181.73 20.9053 181.73 21.5822V25.3137C181.73 25.989 181.852 26.5129 182.171 26.8132C182.488 27.128 183.025 27.2498 183.702 27.2498H193.347C194.05 27.2498 194.563 27.1071 194.876 26.8153C195.197 26.5154 195.319 25.9905 195.319 25.3137V21.5822C195.319 20.9069 195.197 20.383 194.878 20.0827C194.561 19.7678 194.024 19.646 193.347 19.646H183.702ZM184.758 22.5327C184.758 22.3949 184.794 22.3245 184.832 22.2869C184.872 22.2486 184.943 22.2158 185.075 22.2158H191.974C192.112 22.2158 192.183 22.2517 192.22 22.2902C192.258 22.3296 192.291 22.4014 192.291 22.5327V24.3632C192.291 24.5009 192.255 24.5714 192.217 24.6089C192.177 24.6473 192.106 24.68 191.974 24.68H185.075C184.937 24.68 184.866 24.6442 184.829 24.6056C184.791 24.5662 184.758 24.4945 184.758 24.3632V22.5327Z" fill="black"/>
</svg>
