<svg width="72" height="24" viewBox="0 0 72 24" fill="none" xmlns="http://www.w3.org/2000/svg">
<path d="M62.2164 9.45874L62.3341 9.71202L62.6114 9.74468L66.7762 10.235C67.201 10.2851 67.3709 10.8106 67.0559 11.0999L63.9818 13.923L63.7745 14.1134L63.8297 14.3894L64.6476 18.4768C64.7312 18.8948 64.287 19.219 63.9144 19.0119L60.2429 16.9711L60 16.8361L59.7571 16.9711L56.0856 19.0119C55.713 19.219 55.2688 18.8948 55.3524 18.4768L56.1703 14.3894L56.2255 14.1134L56.0182 13.923L52.9441 11.0999C52.6291 10.8106 52.7991 10.2851 53.2238 10.235L57.3886 9.74468L57.6659 9.71202L57.7836 9.45874L59.5465 5.6632C59.7257 5.27738 60.2743 5.27738 60.4535 5.6632L62.2164 9.45874Z" fill="#E6E7F0" stroke="#D7DAE4"/>
<path d="M35.0931 5.45258C35.4515 4.68092 36.5485 4.68092 36.9069 5.45257L38.6699 9.24811L42.8347 9.73847C43.6842 9.83849 44.0241 10.8896 43.3941 11.4682L40.32 14.2913L41.1379 18.3787C41.3051 19.2147 40.4166 19.8632 39.6714 19.4489L36 17.4081L32.3286 19.4489C31.5834 19.8632 30.6949 19.2147 30.8621 18.3787L31.68 14.2913L28.6059 11.4682C27.9759 10.8896 28.3158 9.83849 29.1653 9.73847L33.3301 9.24811L35.0931 5.45258Z" fill="#EAA300"/>
<path d="M35.0931 5.45258C35.4515 4.68092 36.5485 4.68092 36.9069 5.45257L38.6699 9.24811L42.8347 9.73847C43.6842 9.83849 44.0241 10.8896 43.3941 11.4682L40.32 14.2913L41.1379 18.3787C41.3051 19.2147 40.4166 19.8632 39.6714 19.4489L36 17.4081L32.3286 19.4489C31.5834 19.8632 30.6949 19.2147 30.8621 18.3787L31.68 14.2913L28.6059 11.4682C27.9759 10.8896 28.3158 9.83849 29.1653 9.73847L33.3301 9.24811L35.0931 5.45258Z" fill="black" fill-opacity="0.12"/>
<path d="M11.0931 5.45258C11.4515 4.68092 12.5485 4.68092 12.9069 5.45257L14.6699 9.24811L18.8347 9.73847C19.6842 9.83849 20.0241 10.8896 19.3941 11.4682L16.32 14.2913L17.1379 18.3787C17.3051 19.2147 16.4166 19.8632 15.6714 19.4489L12 17.4081L8.32856 19.4489C7.58338 19.8632 6.69487 19.2147 6.86215 18.3787L7.68 14.2913L4.60586 11.4682C3.97587 10.8896 4.31584 9.83849 5.16532 9.73847L9.33009 9.24811L11.0931 5.45258Z" fill="#EAA300"/>
</svg>
