<svg width="72" height="24" viewBox="0 0 72 24" fill="none" xmlns="http://www.w3.org/2000/svg">
<path d="M62.2164 9.45874L62.3341 9.71202L62.6114 9.74468L66.7762 10.235C67.201 10.2851 67.3709 10.8106 67.0559 11.0999L63.9818 13.923L63.7745 14.1134L63.8297 14.3894L64.6476 18.4768C64.7312 18.8948 64.287 19.219 63.9144 19.0119L60.2429 16.9711L60 16.8361L59.7571 16.9711L56.0856 19.0119C55.713 19.219 55.2688 18.8948 55.3524 18.4768L56.1703 14.3894L56.2255 14.1134L56.0182 13.923L52.9441 11.0999C52.6291 10.8106 52.7991 10.2851 53.2238 10.235L57.3886 9.74468L57.6659 9.71202L57.7836 9.45874L59.5465 5.6632C59.7257 5.27738 60.2743 5.27738 60.4535 5.6632L62.2164 9.45874Z" fill="#E6E7F0" stroke="#D7DAE4"/>
<path d="M38.2164 9.45874L38.3341 9.71202L38.6114 9.74468L42.7762 10.235C43.201 10.2851 43.3709 10.8106 43.0559 11.0999L39.9818 13.923L39.7745 14.1134L39.8297 14.3894L40.6476 18.4768C40.7312 18.8948 40.287 19.219 39.9144 19.0119L36.2429 16.9711L36 16.8361L35.7571 16.9711L32.0856 19.0119C31.713 19.219 31.2688 18.8948 31.3524 18.4768L32.1703 14.3894L32.2255 14.1134L32.0182 13.923L28.9441 11.0999C28.6291 10.8106 28.7991 10.2851 29.2238 10.235L33.3886 9.74468L33.6659 9.71202L33.7836 9.45874L35.5465 5.6632C35.7257 5.27738 36.2743 5.27738 36.4535 5.6632L38.2164 9.45874Z" fill="white"/>
<path d="M38.2164 9.45874L38.3341 9.71202L38.6114 9.74468L42.7762 10.235C43.201 10.2851 43.3709 10.8106 43.0559 11.0999L39.9818 13.923L39.7745 14.1134L39.8297 14.3894L40.6476 18.4768C40.7312 18.8948 40.287 19.219 39.9144 19.0119L36.2429 16.9711L36 16.8361L35.7571 16.9711L32.0856 19.0119C31.713 19.219 31.2688 18.8948 31.3524 18.4768L32.1703 14.3894L32.2255 14.1134L32.0182 13.923L28.9441 11.0999C28.6291 10.8106 28.7991 10.2851 29.2238 10.235L33.3886 9.74468L33.6659 9.71202L33.7836 9.45874L35.5465 5.6632C35.7257 5.27738 36.2743 5.27738 36.4535 5.6632L38.2164 9.45874Z" fill="black" fill-opacity="0.12"/>
<path d="M38.2164 9.45874L38.3341 9.71202L38.6114 9.74468L42.7762 10.235C43.201 10.2851 43.3709 10.8106 43.0559 11.0999L39.9818 13.923L39.7745 14.1134L39.8297 14.3894L40.6476 18.4768C40.7312 18.8948 40.287 19.219 39.9144 19.0119L36.2429 16.9711L36 16.8361L35.7571 16.9711L32.0856 19.0119C31.713 19.219 31.2688 18.8948 31.3524 18.4768L32.1703 14.3894L32.2255 14.1134L32.0182 13.923L28.9441 11.0999C28.6291 10.8106 28.7991 10.2851 29.2238 10.235L33.3886 9.74468L33.6659 9.71202L33.7836 9.45874L35.5465 5.6632C35.7257 5.27738 36.2743 5.27738 36.4535 5.6632L38.2164 9.45874Z" stroke="#7B7F91"/>
<path d="M14.2164 9.45874L14.3341 9.71202L14.6114 9.74468L18.7762 10.235C19.201 10.2851 19.3709 10.8106 19.0559 11.0999L15.9818 13.923L15.7745 14.1134L15.8297 14.3894L16.6476 18.4768C16.7312 18.8948 16.287 19.219 15.9144 19.0119L12.2429 16.9711L12 16.8361L11.7571 16.9711L8.08563 19.0119C7.71305 19.219 7.26879 18.8948 7.35243 18.4768L8.17028 14.3894L8.2255 14.1134L8.0182 13.923L4.94406 11.0999C4.62906 10.8106 4.79905 10.2851 5.22379 10.235L9.38856 9.74468L9.66592 9.71202L9.78356 9.45874L11.5465 5.6632C11.7257 5.27738 12.2743 5.27738 12.4535 5.6632L14.2164 9.45874Z" fill="white" stroke="#7B7F91"/>
</svg>
