<svg width="72" height="24" viewBox="0 0 72 24" fill="none" xmlns="http://www.w3.org/2000/svg">
<rect x="51" y="3" width="18" height="18" rx="4" fill="#D7DAE4"/>
<path d="M55.7414 12.8148L58.0516 15.0687C58.44 15.4476 59.0598 15.4476 59.4482 15.0687L64.28 10.3545C64.6807 9.96361 64.6806 9.31949 64.28 8.92863C63.8932 8.55116 63.2758 8.55116 62.8889 8.92863L58.7499 12.9669L57.1326 11.3889C56.7457 11.0115 56.1283 11.0115 55.7414 11.3889C55.3408 11.7798 55.3408 12.4239 55.7414 12.8148Z" fill="white"/>
<rect x="27" y="3" width="18" height="18" rx="4" fill="#805AD5"/>
<rect x="27" y="3" width="18" height="18" rx="4" fill="black" fill-opacity="0.12"/>
<path d="M31.7414 12.8148L34.0516 15.0687C34.44 15.4476 35.0598 15.4476 35.4482 15.0687L40.28 10.3545C40.6807 9.96361 40.6806 9.31949 40.28 8.92863C39.8932 8.55116 39.2758 8.55116 38.8889 8.92863L34.7499 12.9669L33.1326 11.3889C32.7457 11.0115 32.1283 11.0115 31.7414 11.3889C31.3408 11.7798 31.3408 12.4239 31.7414 12.8148Z" fill="white"/>
<path d="M31.7414 12.8148L34.0516 15.0687C34.44 15.4476 35.0598 15.4476 35.4482 15.0687L40.28 10.3545C40.6807 9.96361 40.6806 9.31949 40.28 8.92863C39.8932 8.55116 39.2758 8.55116 38.8889 8.92863L34.7499 12.9669L33.1326 11.3889C32.7457 11.0115 32.1283 11.0115 31.7414 11.3889C31.3408 11.7798 31.3408 12.4239 31.7414 12.8148Z" fill="black" fill-opacity="0.12"/>
<rect x="3" y="3" width="18" height="18" rx="4" fill="#805AD5"/>
<path d="M7.7412 12.8148L10.0513 15.0687C10.4397 15.4476 11.0596 15.4476 11.448 15.0687L16.2798 10.3545C16.6804 9.96361 16.6804 9.31949 16.2798 8.92863C15.8929 8.55116 15.2756 8.55116 14.8887 8.92863L10.7497 12.9669L9.13233 11.3889C8.74544 11.0115 8.12809 11.0115 7.7412 11.3889C7.34059 11.7798 7.34059 12.4239 7.7412 12.8148Z" fill="white"/>
</svg>
