<svg width="40" height="40" viewBox="0 0 40 40" fill="none" xmlns="http://www.w3.org/2000/svg">
<rect width="40" height="40" rx="20" fill="#E6E7F0"/>
<path d="M21.2444 11.6C21.2444 11.0845 20.8265 10.6666 20.3111 10.6666C19.7956 10.6666 19.3777 11.0845 19.3777 11.6V18.7555H11.6C11.0845 18.7555 10.6666 19.1734 10.6666 19.6888C10.6666 20.2043 11.0845 20.6222 11.6 20.6222H19.3777V28.4C19.3777 28.9154 19.7956 29.3333 20.3111 29.3333C20.8265 29.3333 21.2444 28.9154 21.2444 28.4V20.6222H28.4C28.9154 20.6222 29.3333 20.2043 29.3333 19.6888C29.3333 19.1734 28.9154 18.7555 28.4 18.7555H21.2444V11.6Z" fill="#686B79"/>
</svg>
